<?xml version="1.0" encoding="UTF-8" standalone="no"?>
<!-- Created with Inkscape (http://www.inkscape.org/) -->
<svg
   xmlns:svg="http://www.w3.org/2000/svg"
   xmlns="http://www.w3.org/2000/svg"
   version="1.0"
   width="43"
   height="36"
   viewBox="0 0 380 315"
   id="svg2">
  <defs
     id="defs4" />
  <path
     d="M 129.9893,288.37752 C 122.0864,290.30262 119.0535,293.36942 125.8454,298.73922 C 159.55729,311.26412 183.88019,311.42412 223.85009,294.66222 C 242.72969,286.74482 248.62489,254.46692 208.06369,226.98692 C 191.64339,215.86232 183.51859,205.89592 170.24459,193.82622 C 151.73139,170.02642 163.55269,149.52112 185.13229,144.99942 L 250.16929,145.08052 L 233.82529,184.32492 C 234.20809,192.87742 239.64009,196.91222 249.90979,196.61862 L 306.30419,131.97942 L 108.185,131.97942 L 108.185,145.30922 L 148.29009,145.30922 C 126.7768,169.75692 118.395,205.32882 148.14359,224.58772 C 161.51799,231.37462 163.60429,237.20992 172.89739,250.27522 C 178.72079,267.68722 178.82289,292.69752 129.9893,288.37752 z "
     style="fill:#000000;fill-opacity:1;fill-rule:evenodd;stroke:none;stroke-width:1px;stroke-linecap:butt;stroke-linejoin:miter;stroke-opacity:1"
     id="path2607" />
</svg>
