<?xml version="1.0" encoding="UTF-8" standalone="no"?>
<!-- Created with Inkscape (http://www.inkscape.org/) -->
<svg
   xmlns:svg="http://www.w3.org/2000/svg"
   xmlns="http://www.w3.org/2000/svg"
   version="1.0"
   width="43"
   height="36"
   viewBox="0 0 380 315"
   id="svg2">
  <defs
     id="defs4" />
  <path
     d="M 195.79993,165.3771 C 198.65353,175.89974 198.75493,176.12913 201.66583,165.3771 C 210.94543,124.36369 269.79193,112.40901 292.24773,150.3314 C 319.15103,195.76478 254.87823,210.28515 261.22293,203.34983 C 284.38453,178.03174 248.93753,152.85471 222.21133,172.82329 C 202.05583,187.88257 227.85033,221.37683 232.00623,249.50403 C 237.61973,287.49619 212.27883,307.73256 197.11453,307.73256 C 181.95033,307.73256 156.60933,287.49619 162.22293,249.50403 C 166.37883,221.37683 189.03293,194.1271 181.91513,166.20014 C 161.42713,149.52172 170.98523,178.30671 148.93733,200.59019 C 133.23063,216.46477 76.826029,203.70472 105.21813,150.3314 C 125.91623,111.42183 186.52043,124.36369 195.79993,165.3771 z "
     style="fill:#000000;fill-opacity:1;fill-rule:evenodd;stroke:none;stroke-width:1px;stroke-linecap:butt;stroke-linejoin:miter;stroke-opacity:1"
     id="path4113" />
</svg>
