<?xml version="1.0" encoding="UTF-8" standalone="no"?>
<!-- Created with Inkscape (http://www.inkscape.org/) -->
<svg
   xmlns:svg="http://www.w3.org/2000/svg"
   xmlns="http://www.w3.org/2000/svg"
   version="1.0"
   width="43"
   height="36"
   viewBox="0 0 380 315"
   id="svg2">
  <defs
     id="defs4" />
  <path
     d="M 104.23795,136.93437 C 169.71925,138.74967 235.61655,132.92108 300.82035,140.09759 C 299.25895,144.98901 296.13615,154.77173 294.57475,159.66315 C 285.37465,161.47613 276.13035,163.04758 266.84185,164.3774 C 266.76745,196.32461 266.68685,228.30338 266.40505,260.30137 C 275.51275,261.02473 291.29325,268.15256 294.01385,283.77944 C 280.34765,305.95735 245.77975,313.44365 227.44255,287.9241 C 219.51975,246.49751 223.71255,204.04841 224.62195,162.23371 C 209.11315,161.66798 193.62395,161.14784 178.15455,160.6734 C 175.29535,209.65778 193.72805,282.68673 158.47385,307.65945 C 121.19115,309.57895 87.779245,273.14664 134.69875,263.32914 C 134.22895,230.41793 133.88845,197.53223 134.09305,164.66694 C 126.63125,164.60093 111.70805,164.46902 104.24635,164.40301 C 104.24435,157.5359 104.24015,143.80148 104.23795,136.93437 z "
     style="fill:#000000;fill-opacity:1;fill-rule:nonzero;stroke:none"
     id="path3765" />
</svg>
