<?xml version="1.0" encoding="UTF-8" standalone="no"?>
<!-- Created with Inkscape (http://www.inkscape.org/) -->
<svg
   xmlns:svg="http://www.w3.org/2000/svg"
   xmlns="http://www.w3.org/2000/svg"
   version="1.0"
   width="43"
   height="36"
   viewBox="0 0 380 315"
   id="svg2">
  <defs
     id="defs4" />
  <path
     d="M 53.92296,85.909226 L 344.21474,85.909226"
     style="fill:none;fill-rule:evenodd;stroke:#000000;stroke-width:13.2558136;stroke-linecap:butt;stroke-linejoin:miter;stroke-miterlimit:4;stroke-dasharray:none;stroke-opacity:1"
     id="path6136" />
  <path
     d="M 265.04709,269.13472 C 272.73221,283.59599 278.49234,292.66746 292.22014,292.66746 C 305.88979,292.66746 312.46815,283.51659 320.13923,269.01176 C 332.15892,267.31536 344.27489,265.29801 352.26813,277.02317 C 338.63538,295.67282 317.36247,307.54117 292.20628,307.54117 C 247.88668,307.54117 215.72303,271.33226 215.72303,225.54251 C 215.73193,224.78122 215.72303,224.0202 215.72303,223.25891 C 215.72303,177.46915 247.88668,141.26024 292.20628,141.26024 C 317.36247,141.26024 338.63538,153.12859 352.26813,171.77825 C 344.27489,183.50332 332.15892,181.48606 320.13923,179.78957 C 312.46815,165.28483 305.88979,156.13395 292.22014,156.13395 C 278.49234,156.13395 272.73221,165.20532 265.04709,179.66671 L 265.04709,269.13472 z "
     style="fill:#000000;fill-opacity:1;fill-rule:evenodd;stroke:none;stroke-width:1px;stroke-linecap:butt;stroke-linejoin:miter;stroke-opacity:1"
     id="path6145" />
  <path
     d="M 106.3097,146.32873 L 297.70147,146.32873"
     style="fill:none;fill-rule:evenodd;stroke:#000000;stroke-width:10.19289589;stroke-linecap:butt;stroke-linejoin:miter;stroke-miterlimit:4;stroke-dasharray:none;stroke-opacity:1"
     id="path6147" />
  <path
     d="M 194.39358,224.59071 C 194.39358,178.4225 160.77488,141.44887 114.68529,141.44887 C 68.360581,141.44887 34.741982,178.16265 34.741982,224.59071 C 34.741982,271.01878 68.360581,307.73256 114.68529,307.73256 C 160.77488,307.73256 194.39358,270.75893 194.39358,224.59071 z M 149.15868,180.51541 C 141.14068,165.80838 128.98778,156.52989 114.69969,156.52989 C 100.35078,156.52989 88.173781,165.72768 80.140881,180.39079 L 81.420681,271.70769 C 89.439581,285.06659 101.09318,293.33725 114.69969,293.33725 C 128.26859,293.33725 139.91188,284.96934 147.91668,271.53097 L 149.15868,180.51541 z "
     style="fill:#000000;fill-opacity:1;fill-rule:evenodd;stroke:none;stroke-width:1px;stroke-linecap:butt;stroke-linejoin:miter;stroke-opacity:1"
     id="path3678" />
</svg>
