<?xml version="1.0" encoding="UTF-8" standalone="no"?>
<!-- Created with Inkscape (http://www.inkscape.org/) -->
<svg
   xmlns:svg="http://www.w3.org/2000/svg"
   xmlns="http://www.w3.org/2000/svg"
   version="1.0"
   width="43"
   height="36"
   viewBox="0 0 380 315"
   id="svg2">
  <defs
     id="defs4" />
  <path
     d="M 174.14376,7.2843881 C 163.41366,7.3114981 152.6918,7.3085781 141.97586,7.4988381 L 141.92885,25.608168 L 163.20667,26.370678 C 162.95319,50.085878 163.13616,73.819353 162.99222,97.568955 C 123.24883,101.97999 77.646575,86.053448 42.469825,108.07714 C 54.904045,117.95191 67.611655,127.81141 81.071305,136.38489 C 102.90842,150.39654 125.20601,163.90474 149.91061,172.41293 C 139.07191,150.39087 123.62995,131.38497 107.87789,112.79509 C 126.27407,112.6388 144.75371,112.52874 163.20667,112.36619 C 163.23653,141.56495 163.37746,170.63555 163.20667,199.86287 C 162.3945,224.48804 166.01978,250.14996 157.202,273.84904 C 127.2192,263.65533 97.623275,239.51688 64.343995,250.0448 C 43.620745,257.29338 33.582815,278.47822 24.026895,296.58102 C 34.827675,299.13232 45.816575,301.91051 56.838155,303.87241 C 62.478775,304.82089 73.715145,306.78416 79.355685,307.73256 C 88.076445,296.67461 92.728945,276.35719 110.88023,279.42481 C 146.01109,284.71038 178.10933,305.77735 214.46086,303.87241 C 247.13547,302.46234 276.13976,272.89112 275.36541,239.75107 C 277.25191,198.38152 275.85574,156.96462 276.43768,115.58298 C 301.00649,114.59873 325.77723,112.69404 350.42384,113.43845 L 352.78282,95.638881 C 327.22899,95.770555 301.73005,95.39166 276.22322,94.995523 C 275.5712,75.596565 274.84395,56.243671 274.5076,36.878858 L 274.29315,25.083958 C 279.03984,25.305098 287.36584,25.301588 292.11245,25.522638 C 291.61818,20.827668 291.94372,11.979528 291.44936,7.2843881 C 271.36973,7.2974281 251.21204,7.3946981 231.18817,7.4988381 C 231.02836,37.320288 229.6049,67.107414 228.40028,96.925597 C 223.15142,97.061475 212.8474,97.218797 207.59837,97.354503 C 207.0028,75.873123 206.04136,54.472721 206.0972,33.018708 C 206.15451,26.597218 206.25436,13.706048 206.31166,7.2843881 C 195.56998,7.2667981 184.87385,7.2572781 174.14376,7.2843881 z M 207.81283,114.51072 C 212.99254,114.64462 223.22048,115.02026 228.40028,115.15407 C 226.91635,163.72005 231.66511,212.56954 227.11357,260.98188 C 220.08235,286.15236 191.46493,290.26419 169.4258,291.43416 C 183.45581,278.85437 208.33137,270.69804 206.74056,247.90027 C 207.75261,203.45753 207.38281,158.94985 207.81283,114.51072 z "
     style="fill:#000000;fill-opacity:1;fill-rule:nonzero;stroke:none"
     id="path5427" />
</svg>
