<?xml version="1.0" encoding="UTF-8" standalone="no"?>
<!-- Created with Inkscape (http://www.inkscape.org/) -->
<svg
   xmlns:svg="http://www.w3.org/2000/svg"
   xmlns="http://www.w3.org/2000/svg"
   version="1.0"
   width="43"
   height="36"
   viewBox="0 0 380 315"
   id="svg2">
  <defs
     id="defs4" />
  <g
     transform="matrix(8.1764287,0,0,8.1764287,-5795.0764,-214.00987)"
     id="g4247">
    <path
       d="M 731.75784,50.362831 C 733.26425,52.843411 737.18019,54.206457 741.44534,52.612831 C 746.41273,50.756821 749.32406,39.108646 743.79534,32.112831 C 743.49715,31.735519 743.48225,31.068845 743.79534,30.662831 C 744.8428,29.304505 748.64534,27.062831 748.64534,27.062831 L 738.54534,27.062831 C 740.81085,33.941025 742.80925,40.842115 740.49534,48.112831 C 738.74928,51.24858 735.53376,52.595584 732.64534,48.762831 C 738.31833,40.224025 737.26169,33.287511 731.75784,27.412831 C 726.25399,33.287511 725.19735,40.224025 730.87034,48.762831 C 727.98192,52.595584 724.7664,51.24858 723.02034,48.112831 C 720.70643,40.842115 722.70483,33.941025 724.97034,27.062831 L 714.87034,27.062831 C 714.87034,27.062831 718.67288,29.304505 719.72034,30.662831 C 720.03343,31.068845 720.01853,31.735519 719.72034,32.112831 C 714.19162,39.108646 717.10295,50.756821 722.07034,52.612831 C 726.33549,54.206457 730.25143,52.843411 731.75784,50.362831 z "
       style="fill:#000000;fill-opacity:1;fill-rule:evenodd;stroke:none;stroke-width:1px;stroke-linecap:butt;stroke-linejoin:miter;stroke-opacity:1"
       id="path4249" />
    <path
       d="M 745.37034,34.612831 C 755.64637,55.076917 740.72814,69.725101 727.17034,58.312831 C 725.84767,56.801579 724.3698,57.152602 722.92034,57.162831 C 722.38341,57.255497 721.93825,57.413718 722.32034,58.162831 C 724.27623,58.116748 724.67682,59.237139 725.07034,60.362831 C 724.83371,65.891562 717.33861,64.527022 718.62034,58.012831 C 722.26744,54.443773 726.28107,52.168346 732.17034,56.512831 C 735.77458,58.973603 739.40364,60.813787 743.27034,56.712831 C 745.58849,53.789186 746.53316,50.535908 745.52034,46.812831 L 745.37034,34.612831 z "
       style="fill:#000000;fill-opacity:1;fill-rule:evenodd;stroke:none;stroke-width:1px;stroke-linecap:butt;stroke-linejoin:miter;stroke-opacity:1"
       id="path4251" />
  </g>
</svg>
