<?xml version="1.0" encoding="UTF-8" standalone="no"?>
<!-- Created with Inkscape (http://www.inkscape.org/) -->
<svg
   xmlns:svg="http://www.w3.org/2000/svg"
   xmlns="http://www.w3.org/2000/svg"
   version="1.0"
   width="43"
   height="36"
   viewBox="0 0 380 315"
   id="svg2">
  <defs
     id="defs4" />
  <path
     d="M 249.6107,288.04203 C 248.1774,320.6127 314.6624,309.16249 321.0229,279.95969 C 328.1736,247.12896 283.2799,243.44571 253.0407,245.34689 C 224.1728,246.7904 151.8811,247.32721 154.8898,219.35356 C 159.9676,172.14253 234.9673,154.8018 255.7203,129.59243 L 201.3935,128.94911 L 266.5903,66.730677 L 79.2043,66.856957 C 90.7843,86.914177 99.5141,100.79696 115.1253,119.38329 C 115.1253,104.73674 114.8262,96.676477 114.8262,87.017387 L 191.9553,88.133277 L 104.7724,153.52795 L 160.5534,153.65379 C 140.9743,175.57079 101.4746,192.35606 100.6904,227.03708 C 99.9399,260.23087 143.4355,263.87901 196.9685,263.5845 C 220.3976,263.45557 239.9551,263.16128 263.7785,269.15159 L 249.6107,288.04203 z "
     style="fill:#000000;fill-opacity:1;fill-rule:evenodd;stroke:none;stroke-width:1px;stroke-linecap:butt;stroke-linejoin:miter;stroke-opacity:1"
     id="path3591" />
</svg>
