<?xml version="1.0" encoding="UTF-8" standalone="no"?>
<!-- Created with Inkscape (http://www.inkscape.org/) -->
<svg
   xmlns:svg="http://www.w3.org/2000/svg"
   xmlns="http://www.w3.org/2000/svg"
   version="1.0"
   width="43"
   height="36"
   viewBox="0 0 380 315"
   id="svg2">
  <defs
     id="defs4" />
  <g
     transform="translate(-1110.125,1065.874)"
     id="g2699">
    <path
       d="M 1172.9128,-769.16509 L 1172.9128,-758.1414 L 1437.2058,-758.1414 L 1437.2058,-769.16509 L 1172.9128,-769.16509 z "
       style="fill:#000000;fill-opacity:1;fill-rule:evenodd;stroke:none;stroke-width:2.59999895;stroke-linecap:butt;stroke-linejoin:miter;stroke-miterlimit:4;stroke-dasharray:none;stroke-opacity:1"
       id="path2701" />
    <path
       d="M 1418.6287,-767.55588 C 1368.7382,-832.07442 1329.7264,-943.54226 1301.5469,-961.91179 C 1251.9086,-994.26963 1213.1912,-966.23119 1209.0244,-947.9323 C 1191.3534,-870.32642 1281.8007,-897.99331 1261.739,-934.59262 C 1253.8522,-948.98086 1283.5847,-946.30908 1294.5219,-934.59262 C 1305.4506,-922.88543 1314.853,-902.66969 1305.4496,-887.75988 C 1280.357,-847.97373 1209.4425,-766.77534 1209.4425,-766.77534 L 1268.2646,-766.46251 L 1332.5636,-858.30198 L 1385.2741,-767.43148 L 1418.6287,-767.55588 z "
       style="fill:#000000;fill-opacity:1;fill-rule:evenodd;stroke:none;stroke-width:1px;stroke-linecap:butt;stroke-linejoin:miter;stroke-opacity:1"
       id="path2703" />
  </g>
</svg>
