<?xml version="1.0" encoding="UTF-8" standalone="no"?>
<!-- Created with Inkscape (http://www.inkscape.org/) -->
<svg
   xmlns:svg="http://www.w3.org/2000/svg"
   xmlns="http://www.w3.org/2000/svg"
   version="1.0"
   width="43"
   height="36"
   viewBox="0 0 380 315"
   id="svg2">
  <defs
     id="defs4" />
  <path
     d="M 194.90719,244.09193 C 210.59158,254.70443 218.87362,308.59833 253.91544,307.83726 C 272.28942,304.26574 288.63464,290.84023 291.92467,272.38181 C 294.45052,258.21077 283.47374,247.47591 271.40375,241.84069 C 256.384,234.8283 243.6417,248.51065 245.28313,263.708 C 249.49423,274.29081 236.86518,262.15854 224.77029,250.24342 C 211.23133,236.67817 210.36023,229.45848 210.9705,217.18014 C 211.29596,210.63162 248.80326,161.15175 255.61184,157.52747 C 268.69542,150.56297 266.9314,177.82785 271.79832,169.76765 C 278.49164,158.68237 293.6702,158.26473 285.34119,145.46122 C 279.80945,136.95774 271.0399,135.18802 261.09702,133.60815 C 241.71262,130.52808 220.6528,134.20494 210.03952,153.91321 C 197.40723,177.37061 196.58543,191.65041 189.8777,191.83693 C 174.13818,181.22001 165.85614,127.32612 130.81432,128.0872 C 112.44033,131.65871 96.095117,145.08422 92.805087,163.54263 C 90.279228,177.71368 101.25601,188.44854 113.32601,194.08375 C 128.34576,201.09615 141.08806,187.41379 139.44663,172.21645 C 135.23553,161.63364 147.86458,173.76591 159.95947,185.68103 C 173.49843,199.24627 174.36953,206.46596 173.75926,218.74431 C 173.4338,225.29283 141.12679,268.27243 134.31813,271.89671 C 121.23454,278.86121 122.99856,251.59632 118.13163,259.65652 C 111.43831,270.74181 91.059555,277.65971 99.388561,290.46323 C 104.9203,298.9667 113.68985,300.73642 123.63273,302.3163 C 143.01714,305.39637 164.07696,301.71951 174.69024,282.01123 C 187.32253,258.55385 188.14433,244.27404 194.79693,244.08301"
     style="fill:#000000;fill-opacity:1;fill-rule:evenodd;stroke:none;stroke-width:1px;stroke-linecap:butt;stroke-linejoin:miter;stroke-opacity:1"
     id="path4289" />
  <path
     d="M 237.28404,7.9477401 C 226.7752,8.1518575 213.52281,10.032552 200.86079,24.232329 C 188.89831,17.621957 177.06316,10.37483 162.57591,16.388591 L 180.51825,41.202472 L 180.74802,282.24046 L 159.6045,282.24046 C 159.6045,302.78461 208.78622,324.60436 208.78622,290.9737 L 208.78622,117.11284 C 241.73457,142.14167 262.25516,125.91037 280.03078,100.56567 C 290.84059,72.987076 289.98439,45.408576 267.1608,17.830071 C 257.50857,12.466138 247.79297,7.7435394 237.28404,7.9477401 z M 229.69997,29.767234 C 244.47629,29.767234 250.56467,42.755633 250.56467,68.620498 C 250.56467,94.485453 244.4762,110.07399 229.69997,110.07399 C 214.84828,110.07399 209.06512,94.631025 209.06504,68.620498 C 209.06504,42.610061 214.8482,29.767234 229.69997,29.767234 z "
     style="fill:#000000;fill-opacity:1;fill-rule:evenodd;stroke:none;stroke-width:1px;stroke-linecap:butt;stroke-linejoin:miter;stroke-opacity:1"
     id="path3852" />
</svg>
