<?xml version="1.0" encoding="UTF-8" standalone="no"?>
<!-- Created with Inkscape (http://www.inkscape.org/) -->
<svg
   xmlns:svg="http://www.w3.org/2000/svg"
   xmlns="http://www.w3.org/2000/svg"
   version="1.0"
   width="43"
   height="36"
   viewBox="0 0 380 315"
   id="svg2">
  <defs
     id="defs4" />
  <path
     d="M 135.36035,47.029028 C 139.09825,138.94688 25.903624,101.31137 76.080333,34.211737 C 109.35666,-10.287563 237.12684,-7.7406826 257.92587,103.90583 C 269.93155,168.35062 82.737143,159.84764 99.311693,226.47134 C 116.6147,296.02314 225.69044,311.048 270.74316,230.47671 L 277.95283,167.9924 L 349.24906,181.61076 L 342.0394,220.46323 C 317.31669,256.27523 279.8902,288.20318 237.19573,300.6328 C 157.93056,323.70918 60.903663,289.44518 44.037153,213.65405 C 22.886363,118.61087 154.40146,138.51264 188.23178,99.900456 C 228.325,54.140129 157.93996,22.575157 124.94627,31.808517 C 124.94627,31.808517 134.93846,36.653707 135.36035,47.029028 z "
     style="fill:#000000;fill-opacity:1;fill-rule:evenodd;stroke:none;stroke-width:1px;stroke-linecap:butt;stroke-linejoin:miter;stroke-opacity:1"
     id="path4851" />
</svg>
