<?xml version="1.0" encoding="UTF-8" standalone="no"?>
<!-- Created with Inkscape (http://www.inkscape.org/) -->
<svg
   xmlns:svg="http://www.w3.org/2000/svg"
   xmlns="http://www.w3.org/2000/svg"
   version="1.0"
   width="43"
   height="36"
   viewBox="0 0 380 315"
   id="svg2">
  <defs
     id="defs4" />
  <path
     d="M 66.603454,8.8296548 L 66.603454,31.600581 L 91.873624,31.600581 L 91.873624,287.07923 L 58.828014,287.07923 L 58.828014,309.29477 L 174.6265,309.29477 L 282.09415,309.29477 C 369.47696,291.05959 327.92824,175.19325 269.32022,143.23364 C 322.34826,98.358821 319.99274,43.098781 249.32624,8.8296548 L 174.6265,8.8296548 L 66.603454,8.8296548 z M 159.63101,34.932911 L 211.00444,35.488301 C 274.06201,54.703401 267.16398,120.96701 211.00444,134.06973 L 159.63101,134.06973 L 159.63101,34.932911 z M 159.63101,157.95144 L 211.00444,158.22913 C 274.06201,177.44423 267.16398,272.31035 211.00444,285.41307 L 159.63101,285.41307 L 159.63101,157.95144 z "
     style="fill:#000000;fill-opacity:1;fill-rule:evenodd;stroke:none;stroke-width:0.63999999px;stroke-linecap:butt;stroke-linejoin:miter;stroke-opacity:1"
     id="path24913" />
</svg>
