<?xml version="1.0" encoding="UTF-8" standalone="no"?>
<!-- Created with Inkscape (http://www.inkscape.org/) -->
<svg
   xmlns:svg="http://www.w3.org/2000/svg"
   xmlns="http://www.w3.org/2000/svg"
   version="1.0"
   width="43"
   height="36"
   viewBox="0 0 380 315"
   id="svg2">
  <defs
     id="defs4" />
  <g
     transform="matrix(11.161196,0,0,11.161196,-7221.4298,-1769.0092)"
     id="g5786">
    <path
       d="M 667.51335,161.13997 L 667.51335,180.10533 L 674.50676,180.10845 L 674.50676,159.15247 L 666.12164,159.14752 L 666.12164,161.13997 L 667.51335,161.13997 z M 661.73773,180.10845 L 661.73773,159.16007 L 653.0121,159.14752 L 653.0121,161.13997 L 654.74433,161.13997 L 654.74433,180.07408 L 661.73773,180.10845 z "
       style="fill:#000000;fill-opacity:1;fill-rule:evenodd;stroke:none;stroke-width:1px;stroke-linecap:butt;stroke-linejoin:miter;stroke-opacity:1"
       id="path5788" />
    <path
       d="M 661.19084,170.84908 L 658.31584,175.53658 C 657.04383,177.62219 654.47229,180.09787 652.81584,181.47408 C 652.16,182.01774 652.06906,182.99012 652.61272,183.64596 C 653.15637,184.30179 654.12875,184.39274 654.78459,183.84908 C 655.88137,182.93786 657.22072,181.61962 658.53459,180.16158 C 658.84572,181.40995 659.30242,182.49224 659.90959,183.38033 C 661.06966,185.07714 662.82164,186.08444 664.62834,186.06783 C 666.43504,186.05122 668.16026,185.03867 669.31584,183.34908 C 669.91172,182.47784 670.34775,181.40188 670.65959,180.19283 C 672.07459,181.81175 673.77198,183.35394 676.03459,184.16158 C 676.56674,184.43478 677.20894,184.37514 677.68168,184.00862 C 678.15442,183.6421 678.37218,183.03501 678.24019,182.45158 C 678.10819,181.86814 677.65031,181.41391 677.06584,181.28658 C 674.63874,180.42022 672.23311,177.51485 670.87834,175.50533 L 668.06584,171.34908 L 668.06584,176.38033 C 668.06584,178.83616 667.46338,180.56092 666.75334,181.59908 C 666.0433,182.63724 665.27789,182.99907 664.59709,183.00533 C 663.91629,183.01159 663.17765,182.66233 662.47209,181.63033 C 661.76653,180.59833 661.19084,178.85046 661.19084,176.31783 L 661.19084,170.84908 z "
       style="fill:#000000;fill-opacity:1;fill-rule:evenodd;stroke:none;stroke-width:3.07999992;stroke-linecap:round;stroke-linejoin:miter;stroke-miterlimit:4;stroke-dasharray:none;stroke-opacity:1"
       id="path5790" />
  </g>
</svg>
