<?xml version="1.0" encoding="UTF-8" standalone="no"?>
<!-- Created with Inkscape (http://www.inkscape.org/) -->
<svg
   xmlns:svg="http://www.w3.org/2000/svg"
   xmlns="http://www.w3.org/2000/svg"
   version="1.0"
   width="43"
   height="36"
   viewBox="0 0 380 315"
   id="svg2">
  <defs
     id="defs4" />
  <path
     d="M 124.27178,142.96431 L 124.27178,153.72691 C 133.57328,158.41181 142.84278,153.58491 152.14428,172.21651 C 156.78068,181.20921 154.51598,190.89211 154.35198,200.36491 C 154.35198,200.36491 120.26838,221.77101 112.12938,233.75661 C 80.76978,279.93771 133.86918,340.31381 209.82088,279.84271 C 253.78838,323.72701 279.79078,311.54201 297.30168,272.94361 C 296.77368,271.62381 273.90448,284.67901 254.25118,271.01181 C 224.67038,250.44101 198.50628,167.80111 198.50628,167.80111 C 198.25178,158.18771 212.01158,156.53881 224.17098,157.31441 L 224.17098,142.96431 L 124.27178,142.96431 z M 186.91578,236.24031 C 189.56338,236.28101 191.76698,236.98031 193.53898,238.17201 C 217.09188,254.01271 164.70418,296.67431 151.04038,281.49851 C 133.23998,261.72841 168.38248,235.95541 186.91578,236.24031 z "
     style="fill:#000000;fill-opacity:1;fill-rule:evenodd;stroke:none;stroke-width:1px;stroke-linecap:butt;stroke-linejoin:miter;stroke-opacity:1"
     id="path24930" />
</svg>
