<?xml version="1.0" encoding="UTF-8" standalone="no"?>
<!-- Created with Inkscape (http://www.inkscape.org/) -->
<svg
   xmlns:svg="http://www.w3.org/2000/svg"
   xmlns="http://www.w3.org/2000/svg"
   version="1.0"
   width="43"
   height="36"
   viewBox="0 0 380 315"
   id="svg2">
  <defs
     id="defs4" />
  <path
     d="M 190.87691,176.12696 C 241.27111,234.70086 377.68071,160.94516 292.48481,42.00816 C 281.86601,27.18386 246.69571,40.13416 266.42171,62.84756 C 316.58361,120.60606 261.88691,211.59646 211.60661,164.82056 C 208.06071,161.52186 202.50371,152.63936 205.83191,146.87476 C 227.55731,106.37396 238.08891,67.02536 190.87691,33.72926 C 143.66481,67.02536 154.19641,106.37396 175.92181,146.87476 C 179.25001,152.63936 173.69301,161.52186 170.14721,164.82056 C 119.86691,211.59646 65.17011,120.60606 115.33201,62.84756 C 135.05811,40.13416 99.887714,27.18386 89.26891,42.00816 C 4.0730105,160.94516 140.48261,234.70086 190.87691,176.12696 z "
     style="fill:#000000;fill-opacity:1;fill-rule:evenodd;stroke:none;stroke-width:1px;stroke-linecap:butt;stroke-linejoin:miter;stroke-opacity:1"
     id="path4550" />
  <path
     d="M 310.56791,114.70596 C 349.06231,213.75756 265.66001,313.42376 155.72881,252.73366 C 137.88061,238.35796 106.86521,243.49346 103.21091,263.04496 C 121.32011,260.40106 133.62231,264.14136 138.55171,274.14816 C 142.61831,325.75336 56.37131,315.52336 75.99781,259.63486 C 90.921114,217.13936 143.11291,194.97616 199.01311,213.79696 C 232.12511,224.94536 254.12201,235.42596 281.88721,211.90906 C 294.57141,201.16556 304.63411,183.42036 291.01131,149.99716 L 310.56791,114.70596 z "
     style="fill:#000000;fill-opacity:1;fill-rule:evenodd;stroke:none;stroke-width:1px;stroke-linecap:butt;stroke-linejoin:miter;stroke-opacity:1"
     id="path4552" />
</svg>
