<?xml version="1.0" encoding="UTF-8" standalone="no"?>
<!-- Created with Inkscape (http://www.inkscape.org/) -->
<svg
   xmlns:svg="http://www.w3.org/2000/svg"
   xmlns="http://www.w3.org/2000/svg"
   version="1.0"
   width="43"
   height="36"
   viewBox="0 0 380 315"
   id="svg2">
  <defs
     id="defs4" />
  <path
     d="M 152.25738,40.598814 L 217.38508,40.598814 L 217.38508,168.6464 L 243.87768,168.6464 L 243.87768,191.2755 L 217.38508,191.2755 L 217.38508,307.73256 L 182.61348,307.73256 L 182.61348,191.2755 L 159.98438,191.2755 L 159.98438,168.6464 L 182.61348,168.6464 L 182.61348,58.618754 L 152.25738,58.618754 L 152.25738,40.598814 z "
     style="fill:#000000;fill-opacity:1;fill-rule:evenodd;stroke:none;stroke-width:1px;stroke-linecap:butt;stroke-linejoin:miter;stroke-opacity:1"
     id="path4200" />
  <path
     d="M 217.38508,90.272444 C 235.32848,87.096204 254.94898,82.675914 281.40888,90.272444 C 442.60068,186.80056 79.976878,413.071 75.622478,120.92417 C 97.750578,81.293994 142.23338,91.258414 148.94588,131.66714 C 147.56598,143.25766 132.49888,151.7025 124.38498,146.56923 C 117.62388,142.29178 114.15258,131.83217 110.86268,126.69978 C 107.70638,121.77558 96.011478,114.16514 95.960678,138.29029 C 95.754978,235.77666 208.92838,280.72953 270.37028,181.34077 C 297.44478,137.54486 250.07228,100.92932 215.17738,115.10927 C 199.17248,121.61298 200.25118,93.305408 217.38508,90.272444 z "
     style="fill:#000000;fill-opacity:1;fill-rule:evenodd;stroke:none;stroke-width:1px;stroke-linecap:butt;stroke-linejoin:miter;stroke-opacity:1"
     id="path4202" />
</svg>
