<?xml version="1.0" encoding="UTF-8" standalone="no"?>
<!-- Created with Inkscape (http://www.inkscape.org/) -->
<svg
   xmlns:svg="http://www.w3.org/2000/svg"
   xmlns="http://www.w3.org/2000/svg"
   version="1.0"
   width="43"
   height="36"
   viewBox="0 0 380 315"
   id="svg2">
  <defs
     id="defs4" />
  <path
     d="M 249.44148,288.04203 C 248.00828,320.6127 314.49318,309.16249 320.85378,279.95969 C 328.00448,247.12896 283.11078,243.44572 252.87158,245.34689 C 224.00368,246.7904 188.39758,249.66883 191.40628,221.69518 L 271.88498,104.97739 L 76.693485,105.10367 C 88.273485,125.16089 97.003285,139.04367 112.61448,157.63 C 112.61448,142.98345 112.31548,134.92319 112.31548,125.2641 L 207.78728,125.59945 C 207.78728,125.59945 158.50558,187.02785 142.67078,214.54836 C 126.11888,243.31524 143.26638,263.87902 196.79938,263.58451 C 220.22848,263.45557 239.78598,263.16129 263.60928,269.15159 L 249.44148,288.04203 z "
     style="fill:#000000;fill-opacity:1;fill-rule:evenodd;stroke:none;stroke-width:1px;stroke-linecap:butt;stroke-linejoin:miter;stroke-opacity:1"
     id="path2877" />
</svg>
