<?xml version="1.0" encoding="UTF-8" standalone="no"?>
<!-- Created with Inkscape (http://www.inkscape.org/) -->
<svg
   xmlns:svg="http://www.w3.org/2000/svg"
   xmlns="http://www.w3.org/2000/svg"
   version="1.0"
   width="43"
   height="36"
   viewBox="0 0 380 315"
   id="svg2">
  <defs
     id="defs4" />
  <path
     d="M 246.33108,285.30475 C 258.94554,313.76933 303.45488,300.22031 303.58435,278.77887 C 303.86176,232.83753 283.41506,231.14509 252.67592,233.8066 C 221.26044,235.82746 128.42894,298.85333 142.81594,262.28423 C 164.02014,208.38699 260.53985,141.40455 279.53582,103.32255 L 183.84595,103.51027 L 302.24864,7.2674402 L 98.326017,7.4441902 L 98.322187,79.129734 L 142.63257,25.2008 L 206.0078,25.03963 L 98.070898,120.50476 L 199.69656,120.89866 C 178.38972,151.58061 84.686924,224.48999 83.833567,273.04052 C 83.01678,319.50907 131.66118,310.26325 169.88837,296.77736 C 193.95014,288.28877 214.5769,253.77188 246.07692,262.77774 L 246.33108,285.30475 z "
     style="fill:#000000;fill-opacity:1;fill-rule:evenodd;stroke:none;stroke-width:1px;stroke-linecap:butt;stroke-linejoin:miter;stroke-opacity:1"
     id="path6206" />
</svg>
