<?xml version="1.0" encoding="UTF-8" standalone="no"?>
<!-- Created with Inkscape (http://www.inkscape.org/) -->
<svg
   xmlns:svg="http://www.w3.org/2000/svg"
   xmlns="http://www.w3.org/2000/svg"
   version="1.0"
   width="43"
   height="36"
   viewBox="0 0 380 315"
   id="svg2">
  <defs
     id="defs4" />
  <path
     d="M 96.286119,12.343907 C 55.770849,12.242435 16.279339,34.564072 16.199879,81.063078 C 22.439259,135.44857 106.64039,134.86182 92.927669,72.537767 C 92.496229,65.847414 85.585879,56.354972 76.393729,52.90372 C 58.986599,47.290655 56.794409,46.794638 44.875919,55.228804 C 46.152239,38.552471 64.250689,34.069295 75.877049,34.0447 C 87.727229,36.221496 97.184529,43.075432 105.06977,52.645377 C 123.48713,74.997397 138.00155,97.721637 150.79644,122.39792 C 156.21915,132.85635 160.39739,144.95548 153.63821,152.62402 L 41.790169,279.51897 L 8.8372093,279.40572 L 8.9662793,300.13772 L 371.16279,300.13772 L 371.16279,279.4703 L 322.07767,278.95361 C 277.17822,229.10473 245.19942,175.08971 213.05703,120.84786 C 210.06502,115.79871 212.32386,110.71039 215.38212,106.89735 C 234.67422,80.880378 260.15467,45.256465 297.53511,42.311667 C 317.27353,41.305681 311.12756,46.086985 297.53511,56.77886 C 280.99343,71.651445 272.93478,94.584117 292.88494,111.54752 C 360.76914,151.6325 391.19768,42.158418 321.81933,22.160934 C 275.3539,6.201445 237.88915,37.445524 208.14852,79.513021 C 202.29975,85.484459 202.5957,88.646263 197.29813,88.555016 C 175.24972,64.342103 160.86592,26.927874 123.92879,15.960707 C 114.93413,13.579516 105.63585,12.367269 96.286119,12.343907 z M 171.98054,158.5659 L 245.05206,279.60319 L 82.286429,279.56051 L 171.98054,158.5659 z "
     style="fill:#000000;fill-opacity:1;fill-rule:evenodd;stroke:none;stroke-width:1px;stroke-linecap:butt;stroke-linejoin:miter;stroke-opacity:1"
     id="path5043" />
</svg>
