<?xml version="1.0" encoding="UTF-8" standalone="no"?>
<!-- Created with Inkscape (http://www.inkscape.org/) -->
<svg
   xmlns:svg="http://www.w3.org/2000/svg"
   xmlns="http://www.w3.org/2000/svg"
   version="1.0"
   width="43"
   height="36"
   viewBox="0 0 380 315"
   id="svg2">
  <defs
     id="defs4" />
  <path
     d="M 221.67013,124.16527 C 210.81073,123.78157 193.52173,126.64897 193.52173,126.64897 C 132.10934,140.07007 126.01284,177.76127 114.87184,213.30187 C 173.86603,233.43687 206.23733,171.00347 207.04403,159.48877 C 208.11753,144.16417 247.95203,170.19127 257.26963,204.47097 C 267.34883,241.55237 253.98253,275.80477 176.41193,240.62237 C 100.88274,206.36577 86.851936,291.64907 111.00834,302.99037 C 128.17504,317.28767 149.21423,296.17937 140.53653,280.36127 C 133.25254,267.08327 128.95394,268.02127 117.90744,267.94287 C 129.89884,252.80207 147.24583,256.50117 171.72053,285.05267 C 194.44383,300.91457 222.11483,300.42837 243.74733,283.67287 C 319.63073,224.89707 281.37893,128.39927 229.67313,125.82107 C 227.94883,125.73507 225.28993,124.29317 221.67013,124.16527 z M 187.17463,151.48577 C 187.10403,174.55587 164.34063,209.86917 133.36154,203.91907 C 139.76743,172.38827 159.05763,152.80047 187.17463,151.48577 z "
     style="fill:#000000;fill-opacity:1;fill-rule:evenodd;stroke:none;stroke-width:1px;stroke-linecap:butt;stroke-linejoin:miter;stroke-opacity:1"
     id="path4728" />
  <path
     d="M 194.82613,129.41977 L 194.82613,93.904873 L 161.65293,93.904873 L 161.65293,71.659371 L 260.78213,71.659371 L 260.78213,94.295173 L 228.38953,94.295173 L 228.38953,128.63917 L 194.82613,129.41977 z "
     style="fill:#000000;fill-opacity:1;fill-rule:evenodd;stroke:none;stroke-width:1px;stroke-linecap:butt;stroke-linejoin:miter;stroke-opacity:1"
     id="path4730" />
</svg>
