<?xml version="1.0" encoding="UTF-8" standalone="no"?>
<!-- Created with Inkscape (http://www.inkscape.org/) -->
<svg
   xmlns:svg="http://www.w3.org/2000/svg"
   xmlns="http://www.w3.org/2000/svg"
   version="1.0"
   width="43"
   height="36"
   viewBox="0 0 380 315"
   id="svg2">
  <defs
     id="defs4" />
  <path
     d="M 8.8372093,25.625167 C 46.229349,22.051782 83.828299,23.454748 121.35001,23.11538 C 118.81148,30.208898 113.73432,44.395726 111.19579,51.489244 C 90.117129,112.61369 82.176549,181.13638 106.2269,242.65624 C 112.08299,259.2689 128.45292,272.1605 146.61854,270.36037 C 157.10808,263.82894 166.44903,255.68382 176.04839,247.95748 C 160.22546,216.82825 143.75543,184.76705 140.96812,149.36771 C 138.40095,115.43451 151.95689,83.187809 165.88611,53.077404 C 180.19255,2.1500978 221.26002,49.263711 227.9972,77.578946 C 238.69221,114.56376 246.10988,155.12485 233.06547,192.5727 C 226.43676,212.11134 215.35596,230.12985 211.31975,250.55868 C 223.77446,277.78497 264.56843,273.14044 274.47955,246.40603 C 293.76977,198.65194 292.76997,144.41224 280.54647,94.98045 C 273.90298,70.786536 265.82767,47.050276 258.04282,23.262109 C 295.7402,23.673755 333.70406,20.992113 371.16279,26.852348 L 354.24731,40.040101 C 341.51745,48.88381 328.52091,57.302638 315.5555,65.779475 C 339.23019,111.56167 363.82154,163.95067 348.75044,216.48268 C 334.04353,250.66363 303.87083,277.87018 269.4453,291.45583 C 240.79645,302.83993 213.96147,282.38587 189.31336,270.70956 C 165.13614,287.6382 137.43093,299.29498 107.28315,295.03635 C 68.460129,279.39723 37.669909,242.96603 27.987219,202.26721 C 19.439979,154.09951 44.385689,109.49145 61.862229,66.418503 C 42.906619,54.54603 24.106319,42.101637 8.8372093,25.625167 z "
     style="fill:#000000;fill-opacity:1;fill-rule:nonzero;stroke:none"
     id="path4059" />
</svg>
