<?xml version="1.0" encoding="UTF-8" standalone="no"?>
<!-- Created with Inkscape (http://www.inkscape.org/) -->
<svg
   xmlns:dc="http://purl.org/dc/elements/1.1/"
   xmlns:cc="http://web.resource.org/cc/"
   xmlns:rdf="http://www.w3.org/1999/02/22-rdf-syntax-ns#"
   xmlns:svg="http://www.w3.org/2000/svg"
   xmlns="http://www.w3.org/2000/svg"
   xmlns:sodipodi="http://sodipodi.sourceforge.net/DTD/sodipodi-0.dtd"
   xmlns:inkscape="http://www.inkscape.org/namespaces/inkscape"
   version="1.0"
   width="43"
   height="36"
   viewBox="0 0 380 315"
   id="svg2"
   sodipodi:version="0.32"
   inkscape:version="0.45.1"
   sodipodi:docname="Coptic Sou.svg"
   inkscape:output_extension="org.inkscape.output.svg.inkscape"
   sodipodi:docbase="C:\My Pictures\svg">
  <metadata
     id="metadata7">
    <rdf:RDF>
      <cc:Work
         rdf:about="">
        <dc:format>image/svg+xml</dc:format>
        <dc:type
           rdf:resource="http://purl.org/dc/dcmitype/StillImage" />
      </cc:Work>
    </rdf:RDF>
  </metadata>
  <sodipodi:namedview
     inkscape:window-height="712"
     inkscape:window-width="1024"
     inkscape:pageshadow="2"
     inkscape:pageopacity="0.0"
     guidetolerance="10.0"
     gridtolerance="10.0"
     objecttolerance="10.0"
     borderopacity="1.0"
     bordercolor="#666666"
     pagecolor="#ffffff"
     id="base"
     inkscape:zoom="3.7024897"
     inkscape:cx="-2.8174851"
     inkscape:cy="37.705849"
     inkscape:window-x="1020"
     inkscape:window-y="-4"
     inkscape:current-layer="svg2" />
  <defs
     id="defs4" />
  <path
     d="M 74.002211,16.342373 L 303.58259,16.342373"
     style="fill:none;fill-rule:evenodd;stroke:#000000;stroke-width:18.14987183;stroke-linecap:butt;stroke-linejoin:miter;stroke-miterlimit:4;stroke-dasharray:none;stroke-opacity:1"
     id="path6117" />
  <path
     style="fill:#000000;fill-opacity:1;fill-rule:evenodd;stroke:none;stroke-width:23.14713478;stroke-linecap:round;stroke-linejoin:miter;stroke-miterlimit:4;stroke-dasharray:none;stroke-opacity:1"
     d="M 129.5625,69.9375 C 112.43436,69.565377 97.449238,77.58844 89.28125,90.09375 C 78.711964,106.27548 73.629714,128.10327 75.9375,149.03125 C 77.691039,164.93309 84.901942,181.08721 98.46875,190.9375 C 91.920032,200.67273 87.187226,211.97403 84.21875,223.6875 C 79.897838,240.73762 79.026847,258.54414 82.84375,274 C 86.660653,289.45586 97.038376,304.20024 113.9375,306.71875 C 130.83662,309.23726 149.19122,300.66038 171.09375,281.4375 C 175.84423,274.03091 178.12261,265.63547 177.24917,255.97931 L 158.90625,262.125 C 142.99895,268.93597 127.04621,269.18846 117.59375,265.03125 C 102.12982,258.0255 104.94879,243.03466 106.65625,229.375 C 110.17056,215.50768 116.83257,202.68782 124.4375,195.5 L 139.09375,181.65625 L 119.75,176 C 106.43006,172.09955 100.59625,161.54229 98.9375,146.5 C 97.278746,131.45771 101.74509,113.3311 108.65625,102.75 C 112.26256,97.228686 119.27528,92.881115 129.0625,93.09375 C 138.84972,93.306385 151.86381,98.189213 166.0625,113.3125 C 184.29317,133.22986 200.58115,145.67314 216.5,152.125 C 232.41885,158.57686 248.09083,158.29759 261.375,153.03125 C 287.94334,142.49857 305.13407,116.117 322.09375,91.53125 C 324.54727,88.128375 324.96749,83.664295 323.19208,79.86334 C 321.41668,76.062384 317.72359,73.519605 313.53935,73.217196 C 309.35511,72.914787 305.33477,74.900092 303.03125,78.40625 C 286.14256,102.88908 269.3427,124.99045 252.84375,131.53125 C 244.59428,134.80165 236.43447,135.21461 225.1875,130.65625 C 213.94053,126.09789 199.81687,115.93236 183.03125,97.59375 L 182.96875,97.53125 L 182.9375,97.46875 C 165.53762,78.935817 146.69064,70.309623 129.5625,69.9375 z "
     id="path4177"
     sodipodi:nodetypes="csscsssccccccccssscsscsscsscccc" />
</svg>
