<?xml version="1.0" encoding="UTF-8" standalone="no"?>
<!-- Created with Inkscape (http://www.inkscape.org/) -->
<svg
   xmlns:svg="http://www.w3.org/2000/svg"
   xmlns="http://www.w3.org/2000/svg"
   version="1.0"
   width="43"
   height="36"
   viewBox="0 0 380 315"
   id="svg2">
  <defs
     id="defs4" />
  <path
     d="M 324.07339,26.469177 C 274.37395,30.918907 292.14069,84.901051 336.66698,93.881904 C 349.26106,96.422164 316.63527,123.79627 289.50275,113.14269 C 247.67466,96.718974 229.00395,62.292943 195.42124,42.272891 C 168.03498,25.946657 140.26004,27.597167 102.57439,32.148634 C 53.183819,38.113846 11.381409,97.704134 9.2336794,144.25626 C 7.2958494,186.25968 11.481359,237.03692 44.051249,265.50041 C 73.438859,291.18303 110.9794,305.74734 152.70181,294.14465 C 192.41587,283.10052 224.07012,256.13127 232.95507,214.87913 C 240.83807,178.27939 217.13111,150.02323 191.22338,127.95867 C 148.6045,91.661984 97.799599,113.13004 76.893349,128.69947 C 49.186169,149.3338 71.795469,17.642997 153.68955,62.274472 C 190.1265,82.132141 203.19953,116.38235 235.4244,135.11973 C 273.23855,157.10695 333.70625,157.80735 360.86642,116.10588 C 381.86936,83.858302 371.28808,22.241877 324.07339,26.469177 z M 119.36585,132.40347 C 150.42835,132.40347 173.19736,164.38743 173.19726,204.261 C 173.19726,244.13457 150.42835,276.11853 119.36585,276.11853 C 88.144709,276.11853 65.534429,244.35908 65.534429,204.261 C 65.534429,164.16292 88.144709,132.40357 119.36585,132.40347 z "
     style="fill:#000000;fill-opacity:1;fill-rule:evenodd;stroke:none;stroke-width:1px;stroke-linecap:butt;stroke-linejoin:miter;stroke-opacity:1"
     id="path5235" />
</svg>
