<?xml version="1.0" encoding="UTF-8" standalone="no"?>
<!-- Created with Inkscape (http://www.inkscape.org/) -->
<svg
   xmlns:svg="http://www.w3.org/2000/svg"
   xmlns="http://www.w3.org/2000/svg"
   version="1.0"
   width="43"
   height="36"
   viewBox="0 0 380 315"
   id="svg2">
  <defs
     id="defs4" />
  <path
     d="M 199.15371,290.2842 C 223.34631,299.60882 250.80011,314.03412 274.92961,304.72452 C 336.21521,281.07945 344.45351,178.68146 288.20491,140.91825 C 270.74251,133.2376 249.73031,143.64036 261.14581,175.91288 C 263.43021,184.11664 267.99951,200.5245 270.28421,208.72849 C 276.19091,228.85381 279.79611,252.00294 265.67771,269.84328 C 254.69231,289.65224 228.85381,283.41577 210.31151,286.75119 C 222.76511,255.01228 243.46111,220.06368 240.37431,188.98466 C 238.55511,170.66855 222.16011,146.57574 199.15371,142.35801 C 176.14731,146.57574 159.75221,170.66855 157.93301,188.98466 C 154.84621,220.06368 175.54221,255.01228 187.99591,286.75119 C 169.45351,283.41577 143.61501,289.65224 132.62961,269.84328 C 118.51121,252.00294 122.11641,228.85381 128.02311,208.72849 C 130.30781,200.5245 134.87711,184.11664 137.16151,175.91288 C 148.57701,143.64036 127.56481,133.2376 110.10241,140.91825 C 53.853811,178.68146 62.092111,281.07945 123.37771,304.72452 C 147.50721,314.03412 174.96111,299.60882 199.15371,290.2842 z "
     style="fill:#000000;fill-opacity:1;fill-rule:nonzero;stroke:none"
     id="path4463" />
</svg>
