<?xml version="1.0" encoding="UTF-8" standalone="no"?>
<!-- Created with Inkscape (http://www.inkscape.org/) -->
<svg
   xmlns:svg="http://www.w3.org/2000/svg"
   xmlns="http://www.w3.org/2000/svg"
   version="1.0"
   width="43"
   height="36"
   viewBox="0 0 380 315"
   id="svg2">
  <defs
     id="defs4" />
  <path
     d="M 195.71987,307.73256 C 202.88317,307.6034 210.01937,307.47436 214.79487,307.38826 C 215.33157,291.15503 215.83737,274.96032 216.31247,258.80425 C 224.14637,257.51693 239.84047,255.0943 247.64737,253.65475 C 298.10047,244.35132 288.33117,182.58471 290.94237,144.3327 C 293.30167,149.49997 298.02047,159.83463 300.37977,165.0019 C 328.51727,156.15845 359.68387,133.47294 346.71007,104.51057 C 331.80907,71.245687 262.57997,71.065647 259.18997,118.45462 C 256.78807,152.0309 262.17557,187.48882 253.78927,219.2412 C 250.23527,232.69734 229.65647,232.68619 218.08277,239.98534 C 217.69117,220.91001 217.42057,195.86832 217.13197,176.8686 L 247.71737,177.0164 L 247.66067,145.82865 L 215.29367,145.91045 C 215.36077,115.76838 215.37147,88.307358 215.32917,58.211327 L 215.35697,35.509257 C 191.21007,35.489277 167.06307,35.514997 142.91617,35.567217 C 142.91597,41.010007 142.91567,51.895707 142.91537,57.338387 C 149.71707,57.517217 163.32027,57.874647 170.12167,58.053357 L 176.11077,58.211327 C 176.06847,88.307358 176.07917,115.76838 176.14627,145.91045 L 143.77927,145.82865 L 143.72257,177.0164 L 174.30797,176.8686 C 174.01937,195.86832 173.74867,220.91001 173.35717,239.98534 C 161.78347,232.68619 141.20467,232.69734 137.65067,219.2412 C 129.26427,187.48882 134.65177,152.0309 132.24997,118.45462 C 128.85997,71.065647 59.630868,71.245687 44.729869,104.51057 C 31.756069,133.47294 62.922668,156.15845 91.060068,165.0019 C 93.419468,159.83463 98.138268,149.49997 100.49757,144.3327 C 103.10877,182.58471 93.339468,244.35132 143.79257,253.65475 C 151.59947,255.0943 167.29357,257.51693 175.12747,258.80425 C 175.60257,274.96032 176.10827,291.15503 176.64497,307.38826 C 181.42057,307.47436 188.55667,307.6034 195.71987,307.73256 z "
     style="fill:#000000;fill-opacity:1;fill-rule:nonzero;stroke:none"
     id="path4376" />
</svg>
