<?xml version="1.0" encoding="UTF-8" standalone="no"?>
<!-- Created with Inkscape (http://www.inkscape.org/) -->
<svg
   xmlns:svg="http://www.w3.org/2000/svg"
   xmlns="http://www.w3.org/2000/svg"
   version="1.0"
   width="43"
   height="36"
   viewBox="0 0 380 315"
   id="svg2">
  <defs
     id="defs4" />
  <path
     d="M 93.42935,296.70886 L 93.42935,307.73256 L 186.62445,307.73256 L 186.62445,296.70886 L 93.42935,296.70886 z "
     style="fill:#000000;fill-opacity:1;fill-rule:evenodd;stroke:none;stroke-width:2.59999895;stroke-linecap:butt;stroke-linejoin:miter;stroke-miterlimit:4;stroke-dasharray:none;stroke-opacity:1"
     id="path3322" />
  <path
     d="M 302.71795,298.31806 C 252.82745,233.79956 213.81575,122.33166 185.63615,103.96216 C 135.99795,71.604258 97.28045,99.642758 93.11365,117.94166 C 75.44265,195.54756 165.88995,167.88066 145.82835,131.28136 C 137.94145,116.89306 167.67405,119.56486 178.61125,131.28136 C 189.53995,142.98856 198.94225,163.20426 189.53895,178.11406 C 164.44635,217.90026 93.53175,299.09856 93.53175,299.09856 L 152.35395,299.41146 L 216.65285,207.57196 L 269.36345,298.44246 L 302.71795,298.31806 z "
     style="fill:#000000;fill-opacity:1;fill-rule:evenodd;stroke:none;stroke-width:1px;stroke-linecap:butt;stroke-linejoin:miter;stroke-opacity:1"
     id="path3324" />
  <path
     d="M 229.20395,296.70886 L 229.20395,307.73256 L 307.49695,307.73256 L 307.49695,296.70886 L 229.20395,296.70886 z "
     style="fill:#000000;fill-opacity:1;fill-rule:evenodd;stroke:none;stroke-width:2.59999895;stroke-linecap:butt;stroke-linejoin:miter;stroke-miterlimit:4;stroke-dasharray:none;stroke-opacity:1"
     id="path3326" />
</svg>
