<?xml version="1.0" encoding="UTF-8" standalone="no"?>
<!-- Created with Inkscape (http://www.inkscape.org/) -->
<svg
   xmlns:svg="http://www.w3.org/2000/svg"
   xmlns="http://www.w3.org/2000/svg"
   version="1.0"
   width="43"
   height="36"
   viewBox="0 0 380 315"
   id="svg2">
  <defs
     id="defs4" />
  <path
     d="M 91.92482,180.18897 L 322.92068,180.18897"
     style="fill:none;fill-rule:evenodd;stroke:#000000;stroke-width:11.82472706;stroke-linecap:butt;stroke-linejoin:miter;stroke-miterlimit:4;stroke-dasharray:none;stroke-opacity:1"
     id="path6136" />
  <path
     d="M 169.20743,122.46769 C 171.87843,188.15091 90.991134,161.25705 126.84683,113.30864 C 150.62553,81.510008 241.92833,83.330048 256.79103,163.11109 C 265.37013,209.16241 131.60363,203.08633 143.44763,250.69464 C 155.81203,300.39542 233.75603,311.13199 265.95003,253.55683 C 272.49303,239.41575 270.95873,224.03204 271.10203,208.90642 C 285.15263,213.0247 311.19183,207.52561 312.99473,254.98743 C 297.18843,282.43852 273.72103,296.04192 241.97753,303.68945 C 184.62513,317.50677 116.00173,295.69486 103.94913,241.5356 C 88.835134,173.61905 182.81393,187.84061 206.98853,160.2489 C 235.63863,127.54919 185.34243,104.99328 161.76573,111.59137 C 161.76573,111.59137 168.90593,115.05362 169.20743,122.46769 z "
     style="fill:#000000;fill-opacity:1;fill-rule:evenodd;stroke:none;stroke-width:1px;stroke-linecap:butt;stroke-linejoin:miter;stroke-opacity:1"
     id="path4817" />
</svg>
