<?xml version="1.0" encoding="UTF-8" standalone="no"?>
<!-- Created with Inkscape (http://www.inkscape.org/) -->
<svg
   xmlns:svg="http://www.w3.org/2000/svg"
   xmlns="http://www.w3.org/2000/svg"
   version="1.0"
   width="43"
   height="36"
   viewBox="0 0 380 315"
   id="svg2">
  <defs
     id="defs4" />
  <path
     d="M 342.46221,35.632689 L 293.34051,52.742489 C 293.34061,52.742489 187.47951,50.305279 176.33151,51.086699 C 146.39641,53.184919 107.00431,113.24475 93.542113,155.67729 C 72.637613,243.11137 137.25441,365.78735 230.97251,276.82575 C 248.78731,258.2392 247.79301,205.99811 242.28701,180.5141 C 237.26151,157.25294 207.90301,135.78399 178.26321,136.63573 C 157.20061,137.2412 136.71741,147.94884 129.41751,156.50518 C 130.67461,143.18625 128.41001,129.01326 136.31661,117.59417 C 146.88641,96.876849 167.03241,87.238069 187.09411,87.238069 C 209.76091,87.237959 240.30941,92.303119 266.84791,88.617889 C 309.95411,79.172619 325.66751,57.221729 342.46221,35.632689 z M 167.22471,162.02447 C 179.41301,162.02447 189.63711,170.16819 196.47691,183.27375 L 195.64901,264.40734 C 188.82021,276.38244 178.79951,284.00072 167.22471,284.00083 C 155.61761,284.00083 145.64101,276.58731 138.80031,264.6833 L 137.69651,183.27375 C 144.54891,170.20738 154.98421,162.02436 167.22471,162.02447 z "
     style="fill:#000000;fill-opacity:1;fill-rule:evenodd;stroke:none;stroke-width:1px;stroke-linecap:butt;stroke-linejoin:miter;stroke-opacity:1"
     id="path4991" />
</svg>
