<?xml version="1.0" encoding="UTF-8" standalone="no"?>
<!-- Created with Inkscape (http://www.inkscape.org/) -->
<svg
   xmlns:svg="http://www.w3.org/2000/svg"
   xmlns="http://www.w3.org/2000/svg"
   version="1.0"
   width="43"
   height="36"
   viewBox="0 0 380 315"
   id="svg2">
  <defs
     id="defs4" />
  <g
     transform="matrix(10.617599,0,0,10.617599,-6442.1543,-1553.3438)"
     id="g4095">
    <path
       d="M 607.57536,172.65722 L 607.57536,175.28222 L 641.70036,175.28222 L 641.70036,172.65722 L 607.57536,172.65722 z "
       style="fill:#000000;fill-opacity:1;fill-rule:evenodd;stroke:none;stroke-width:2.59999895;stroke-linecap:butt;stroke-linejoin:miter;stroke-miterlimit:4;stroke-dasharray:none;stroke-opacity:1"
       id="path19931" />
    <path
       d="M 612.5169,172.66808 C 612.29217,172.57455 619.89468,161.83415 621.74464,157.11173 C 623.15755,153.50499 621.39659,150.89308 615.97964,150.58741 C 614.12504,150.48276 614.56322,152.14254 615.34533,152.3034 C 623.32151,153.94392 614.90693,161.12451 612.0015,158.32117 C 610.73559,157.09974 610.71344,154.20667 611.02266,151.80163 C 611.58526,147.42588 621.9062,145.90787 626.7651,152.83373 C 631.03136,158.91484 632.23187,166.98343 637.23786,172.76972 L 630.31286,172.76972 L 623.26492,159.33911 L 615.59281,172.8095 L 612.5169,172.66808 z "
       style="fill:#000000;fill-opacity:1;fill-rule:evenodd;stroke:none;stroke-width:1px;stroke-linecap:butt;stroke-linejoin:miter;stroke-opacity:1"
       id="path19933" />
  </g>
</svg>
