<?xml version="1.0" encoding="UTF-8" standalone="no"?>
<!-- Created with Inkscape (http://www.inkscape.org/) -->
<svg
   xmlns:svg="http://www.w3.org/2000/svg"
   xmlns="http://www.w3.org/2000/svg"
   version="1.0"
   width="43"
   height="36"
   viewBox="0 0 380 315"
   id="svg2">
  <defs
     id="defs4" />
  <g
     transform="matrix(9.6573172,0,0,9.6573172,-6856.8416,-1026.6497)"
     id="g4651">
    <path
       d="M 718.14844,107.06049 L 727.8358,107.06049 L 727.8358,129.05151 L 722.03752,129.05151 L 722.03752,109.04038 L 718.14844,109.04038 L 718.14844,107.06049 z "
       style="fill:#000000;fill-opacity:1;fill-rule:evenodd;stroke:none;stroke-width:1px;stroke-linecap:butt;stroke-linejoin:miter;stroke-opacity:1"
       id="path4653" />
    <path
       d="M 727.34083,119.57628 C 737.30517,116.75624 742.88932,129.75422 733.56337,132.23349 C 728.14506,133.67393 722.33842,131.81404 718.36057,133.15273 C 715.77609,134.7559 715.79014,136.4828 715.03717,138.17318 L 723.31032,138.17318 C 723.61607,136.40831 724.7386,134.93972 726.4923,134.49623 C 727.58466,134.21998 736.24862,135.05582 737.24032,134.49623 C 752.54355,125.86109 740.08268,115.05142 727.05798,117.31353 L 727.34083,119.57628 z "
       style="fill:#000000;fill-opacity:1;fill-rule:evenodd;stroke:none;stroke-width:1px;stroke-linecap:butt;stroke-linejoin:miter;stroke-opacity:1"
       id="path4655" />
  </g>
</svg>
