<?xml version="1.0" encoding="UTF-8" standalone="no"?>
<!-- Created with Inkscape (http://www.inkscape.org/) -->
<svg
   xmlns:svg="http://www.w3.org/2000/svg"
   xmlns="http://www.w3.org/2000/svg"
   version="1.0"
   width="43"
   height="36"
   viewBox="0 0 380 315"
   id="svg2">
  <defs
     id="defs4" />
  <path
     d="M 154.61391,242.63672 C 168.66993,266.7756 178.30585,281.72058 202.1563,281.72058 C 225.94069,281.72058 237.0999,266.59999 251.13161,242.31722 L 251.92192,182.6125 L 330.74948,217.8077 C 310.0351,270.91193 262.10682,307.73256 202.1309,307.73256 C 120.93001,307.73256 62.00111,241.39184 62.00111,157.49756 C 62.00111,73.603276 120.93001,7.2625547 202.1309,7.2625547 C 259.72553,7.2625547 306.2102,41.217342 328.15431,90.940344 L 252.77371,118.26141 L 253.30851,77.854615 C 239.25402,51.279606 227.20126,34.513635 202.1563,34.513635 C 177.00461,34.513635 166.45116,51.133861 152.37072,77.629511 L 154.61391,242.63672 z "
     style="fill:#000000;fill-opacity:1;fill-rule:evenodd;stroke:none;stroke-width:1px;stroke-linecap:butt;stroke-linejoin:miter;stroke-opacity:1"
     id="path2960" />
</svg>
