<?xml version="1.0" encoding="UTF-8" standalone="no"?>
<!-- Created with Inkscape (http://www.inkscape.org/) -->
<svg
   xmlns:svg="http://www.w3.org/2000/svg"
   xmlns="http://www.w3.org/2000/svg"
   version="1.0"
   width="43"
   height="36"
   viewBox="0 0 380 315"
   id="svg2">
  <defs
     id="defs4" />
  <path
     d="M 212.72034,59.128846 C 200.10154,59.373946 184.18834,61.632246 168.98404,78.683046 C 154.61974,70.745446 140.40834,62.043246 123.01234,69.264446 L 144.55714,99.060446 L 144.83304,276.31295 L 119.44434,276.31295 C 119.44434,300.98195 178.50074,327.18265 178.50074,286.79965 L 178.50074,190.21205 C 218.06444,220.26615 242.70514,200.77595 264.04974,170.34255 C 277.02994,137.22675 276.00184,104.11105 248.59574,70.995346 C 237.00554,64.554446 225.33924,58.883646 212.72034,59.128846 z M 203.61354,85.329246 C 221.35664,85.329246 228.66744,100.92545 228.66744,131.98345 C 228.66744,163.04155 221.35654,181.75995 203.61354,181.75995 C 185.77994,181.75995 178.83564,163.21635 178.83554,131.98345 C 178.83554,100.75065 185.77984,85.329246 203.61354,85.329246 z "
     style="fill:#000000;fill-opacity:1;fill-rule:evenodd;stroke:none;stroke-width:1px;stroke-linecap:butt;stroke-linejoin:miter;stroke-opacity:1"
     id="path3852" />
</svg>
