<?xml version="1.0" encoding="UTF-8" standalone="no"?>
<!-- Created with Inkscape (http://www.inkscape.org/) -->
<svg
   xmlns:svg="http://www.w3.org/2000/svg"
   xmlns="http://www.w3.org/2000/svg"
   version="1.0"
   width="43"
   height="36"
   viewBox="0 0 380 315"
   id="svg2">
  <defs
     id="defs4" />
  <path
     d="M 139.1483,1.6460152 L 139.1483,25.274615 L 157.34823,25.274615 L 157.34823,289.79957 L 138.98133,289.79957 L 138.98133,312.85186 L 225.97366,312.85186 L 225.97366,289.22327 L 204.76824,289.22327 L 204.76824,123.74917 L 205.26915,124.03733 L 245.00845,123.17287 C 306.0175,123.17287 292.5609,1.6460152 245.00845,1.6460152 L 214.28563,1.6460152 L 139.1483,1.6460152 z M 201.76274,25.850915 L 227.14247,26.427225 C 252.50288,45.502641 253.3666,83.655148 227.14247,96.662738 L 201.76274,96.662738 L 201.76274,25.850915 z "
     style="fill:#000000;fill-opacity:1;fill-rule:evenodd;stroke:none;stroke-width:1px;stroke-linecap:butt;stroke-linejoin:miter;stroke-opacity:1"
     id="path2786" />
  <path
     d="M 43.881315,141.04451 L 334.17309,141.04451"
     style="fill:none;fill-rule:evenodd;stroke:#000000;stroke-width:13.2558136;stroke-linecap:butt;stroke-linejoin:miter;stroke-miterlimit:4;stroke-dasharray:none;stroke-opacity:1"
     id="path6136" />
  <path
     d="M 59.578101,266.394 C 65.361936,277.27757 69.697011,284.10476 80.028566,284.10476 C 90.316351,284.10476 95.267231,277.21781 101.04049,266.30146 C 110.08652,265.02475 119.20501,263.50649 125.22073,272.33086 C 114.96071,286.3666 98.950701,295.29873 80.018135,295.29873 C 46.663164,295.29873 22.456776,268.04787 22.456776,233.58647 C 22.463471,233.01352 22.456776,232.44078 22.456776,231.86783 C 22.456776,197.40642 46.663164,170.15556 80.018135,170.15556 C 98.950701,170.15556 114.96071,179.08769 125.22073,193.12344 C 119.20501,201.94774 110.08652,200.42955 101.04049,199.15277 C 95.267231,188.23649 90.316351,181.34953 80.028566,181.34953 C 69.697011,181.34953 65.361936,188.17665 59.578101,199.0603 L 59.578101,266.394 z "
     style="fill:#000000;fill-opacity:1;fill-rule:evenodd;stroke:none;stroke-width:1px;stroke-linecap:butt;stroke-linejoin:miter;stroke-opacity:1"
     id="path3939" />
  <path
     d="M 284.46984,265.59503 C 290.25367,276.4786 294.58875,283.30579 304.9203,283.30579 C 315.20809,283.30579 320.15897,276.41884 325.93223,265.50249 C 334.97826,264.22578 344.09675,262.70752 350.11247,271.53189 C 339.85245,285.56763 323.84244,294.49976 304.90987,294.49976 C 271.5549,294.49976 247.34851,267.2489 247.34851,232.7875 C 247.35521,232.21455 247.34851,231.64181 247.34851,231.06886 C 247.34851,196.60745 271.5549,169.35659 304.90987,169.35659 C 323.84244,169.35659 339.85245,178.28872 350.11247,192.32447 C 344.09675,201.14877 334.97826,199.63058 325.93223,198.3538 C 320.15897,187.43752 315.20809,180.55056 304.9203,180.55056 C 294.58875,180.55056 290.25367,187.37768 284.46984,198.26133 L 284.46984,265.59503 z "
     style="fill:#000000;fill-opacity:1;fill-rule:evenodd;stroke:none;stroke-width:1px;stroke-linecap:butt;stroke-linejoin:miter;stroke-opacity:1"
     id="path6145" />
  <path
     d="M 73.833885,167.29963 L 303.92216,167.29963"
     style="fill:none;fill-rule:evenodd;stroke:#000000;stroke-width:11.17591858;stroke-linecap:butt;stroke-linejoin:miter;stroke-miterlimit:4;stroke-dasharray:none;stroke-opacity:1"
     id="path6147" />
</svg>
