<?xml version="1.0" encoding="UTF-8" standalone="no"?>
<!-- Created with Inkscape (http://www.inkscape.org/) -->
<svg
   xmlns:svg="http://www.w3.org/2000/svg"
   xmlns="http://www.w3.org/2000/svg"
   version="1.0"
   width="43"
   height="36"
   viewBox="0 0 380 315"
   id="svg2">
  <defs
     id="defs4" />
  <path
     d="M 229.98217,227.11094 L 171.24907,227.30941 L 170.71327,266.72257 C 178.91937,282.16422 185.06997,291.85058 199.72837,291.85058 C 214.32467,291.85058 221.34897,282.07934 229.53997,266.59132 C 242.37457,264.77989 255.31187,262.62582 263.84697,275.14578 C 249.29007,295.05972 226.57507,307.73256 199.71357,307.73256 C 152.38957,307.73256 118.04567,269.06904 118.04567,220.17529 C 118.05507,219.36241 118.04567,218.54975 118.04567,217.73687 C 118.04567,168.84311 152.38957,130.17959 199.71357,130.17959 C 226.57507,130.17959 249.29007,142.85244 263.84697,162.76637 C 255.31187,175.28633 242.37457,173.13227 229.53997,171.32083 C 221.34897,155.83282 214.32467,146.06157 199.72837,146.06157 C 185.06997,146.06157 178.91937,155.74793 170.71327,171.18958 L 171.24907,210.60274 L 229.98217,210.80121 L 229.98217,227.11094 z "
     style="fill:#000000;fill-opacity:1;fill-rule:evenodd;stroke:none;stroke-width:1px;stroke-linecap:butt;stroke-linejoin:miter;stroke-opacity:1"
     id="path2790" />
</svg>
