<?xml version="1.0" encoding="UTF-8" standalone="no"?>
<!-- Created with Inkscape (http://www.inkscape.org/) -->
<svg
   xmlns:svg="http://www.w3.org/2000/svg"
   xmlns="http://www.w3.org/2000/svg"
   version="1.0"
   width="43"
   height="36"
   viewBox="0 0 380 315"
   id="svg2">
  <defs
     id="defs4" />
  <path
     d="M 198.83093,231.17889 C 217.66443,243.92216 227.60933,308.63685 269.68683,307.72297 C 291.74993,303.43437 311.37693,287.31329 315.32753,265.1488 C 318.36053,248.1325 305.17983,235.2423 290.68643,228.47565 C 272.65103,220.05531 257.35033,236.4848 259.32133,254.73346 C 264.37793,267.44108 249.21323,252.8729 234.68993,238.56547 C 218.43263,222.2766 217.38663,213.60734 218.11943,198.86376 C 218.51023,191.00043 263.54823,131.58602 271.72383,127.23406 C 287.43433,118.87123 285.31613,151.61034 291.16023,141.93182 C 299.19743,128.62084 317.42353,128.11935 307.42223,112.74515 C 300.77983,102.53435 290.24953,100.40931 278.31033,98.512221 C 255.03393,94.813743 229.74573,99.228846 217.00153,122.89413 C 201.83293,151.06129 200.84613,168.20818 192.79163,168.43215 C 173.89193,155.68358 163.94703,90.968894 121.86953,91.882778 C 99.806425,96.171379 80.179425,112.29246 76.228825,134.45694 C 73.195825,151.47325 86.376525,164.36344 100.86992,171.13009 C 118.90533,179.55044 134.20603,163.12094 132.23503,144.87228 C 127.17843,132.16466 142.34313,146.73284 156.86643,161.04028 C 173.12373,177.32914 174.16973,185.9984 173.43693,200.74198 C 173.04613,208.60531 134.25253,260.21434 126.07683,264.5663 C 110.36632,272.92913 112.48452,240.19001 106.64042,249.86853 C 98.603225,263.17952 74.132825,271.48639 84.134125,286.86059 C 90.776525,297.07139 101.30682,299.19643 113.24602,301.09352 C 136.52243,304.792 161.81063,300.3769 174.55483,276.71161 C 189.72343,248.54446 190.71023,231.39756 198.69853,231.16818"
     style="fill:#000000;fill-opacity:1;fill-rule:evenodd;stroke:none;stroke-width:1px;stroke-linecap:butt;stroke-linejoin:miter;stroke-opacity:1"
     id="path4289" />
</svg>
