<?xml version="1.0" encoding="UTF-8" standalone="no"?>
<!-- Created with Inkscape (http://www.inkscape.org/) -->
<svg
   xmlns:svg="http://www.w3.org/2000/svg"
   xmlns="http://www.w3.org/2000/svg"
   version="1.0"
   width="43"
   height="36"
   viewBox="0 0 380 315"
   id="svg2">
  <defs
     id="defs4" />
  <g
     transform="matrix(11.08748,0,0,11.08748,-7873.6814,-724.65379)"
     id="g4447">
    <path
       d="M 729.9748,66.136681 L 738.00046,66.136681 L 738.00046,68.11658 L 735.93217,68.11658 L 735.93217,91.168261 L 738.9197,91.168261 L 738.9197,93.112804 L 726.93424,93.112804 L 726.93424,91.09755 L 729.95712,91.09755 L 729.9748,66.136681 z "
       style="fill:#000000;fill-opacity:1;fill-rule:evenodd;stroke:none;stroke-width:1px;stroke-linecap:butt;stroke-linejoin:miter;stroke-opacity:1"
       id="path4449" />
    <path
       d="M 730.23996,80.049007 C 713.55813,88.466652 709.36382,63.276404 723.876,66.260425 C 726.95061,66.892632 726.37242,70.84751 725.44802,71.583195 C 724.19521,72.580245 721.83439,74.122055 719.06768,70.856619 C 717.99861,69.594842 717.47272,70.550056 717.12313,71.068751 C 714.85207,74.438373 722.48324,85.753105 730.09854,76.937737 L 730.23996,80.049007 z "
       style="fill:#000000;fill-opacity:1;fill-rule:evenodd;stroke:none;stroke-width:1px;stroke-linecap:butt;stroke-linejoin:miter;stroke-opacity:1"
       id="path4451" />
  </g>
</svg>
