<?xml version="1.0" encoding="UTF-8" standalone="no"?>
<!-- Created with Inkscape (http://www.inkscape.org/) -->
<svg
   xmlns:svg="http://www.w3.org/2000/svg"
   xmlns="http://www.w3.org/2000/svg"
   version="1.0"
   width="43"
   height="36"
   viewBox="0 0 380 315"
   id="svg2">
  <defs
     id="defs4" />
  <path
     d="M 211.05848,59.128837 C 198.43968,59.373937 182.52648,61.632237 167.32218,78.683038 C 152.95788,70.745438 138.74648,62.043237 121.35048,69.264438 L 142.89528,99.060438 L 143.17118,276.31295 L 117.78248,276.31295 C 117.78248,300.98195 176.83888,327.18265 176.83888,286.79965 L 176.83888,190.21205 C 216.40258,220.26615 241.04328,200.77595 262.38788,170.34255 C 275.36808,137.22674 274.33998,104.11104 246.93388,70.995338 C 235.34368,64.554437 223.67738,58.883637 211.05848,59.128837 z M 201.95168,85.329238 C 219.69478,85.329238 227.00558,100.92544 227.00558,131.98344 C 227.00558,163.04155 219.69468,181.75995 201.95168,181.75995 C 184.11808,181.75995 177.17378,163.21635 177.17368,131.98344 C 177.17368,100.75064 184.11798,85.329238 201.95168,85.329238 z "
     style="fill:#000000;fill-opacity:1;fill-rule:evenodd;stroke:none;stroke-width:1px;stroke-linecap:butt;stroke-linejoin:miter;stroke-opacity:1"
     id="path3852" />
  <path
     d="M 107.4073,219.9032 L 267.32484,219.9032"
     style="fill:none;fill-rule:evenodd;stroke:#000000;stroke-width:8.95209312;stroke-linecap:butt;stroke-linejoin:miter;stroke-miterlimit:4;stroke-dasharray:none;stroke-opacity:1"
     id="path3196" />
</svg>
