<?xml version="1.0" encoding="UTF-8" standalone="no"?>
<!-- Created with Inkscape (http://www.inkscape.org/) -->
<svg
   xmlns:svg="http://www.w3.org/2000/svg"
   xmlns="http://www.w3.org/2000/svg"
   version="1.0"
   width="43"
   height="36"
   viewBox="0 0 380 315"
   id="svg2">
  <defs
     id="defs4" />
  <path
     d="M 181.10709,7.468899 C 194.35589,7.367589 207.65356,7.300479 220.99969,7.267439 C 221.10938,23.073819 221.05694,38.911351 220.84238,54.779711 C 220.56856,67.009488 220.35106,79.273348 220.18967,91.571081 C 236.05457,91.130311 252.01175,90.669615 267.98991,90.446556 L 290.77647,90.692162 C 296.2657,90.751309 296.03058,103.12224 295.05109,112.50604 C 270.34708,111.69592 245.6759,112.3737 221.04384,112.68653 C 220.10871,168.26186 221.35215,223.93777 218.9997,279.4805 C 218.14794,299.59202 191.73486,308.54397 179.90307,307.67501 C 169.5488,306.91449 158.00634,288.71759 152.6828,278.32755 C 150.90903,274.86578 157.01458,262.75545 160.07648,262.23288 C 164.29846,261.51242 176.38331,270.5748 181.81905,273.35543 C 183.56452,220.64044 182.73499,167.89576 180.84418,115.22124 L 139.95363,114.12052 L 150.54271,160.10368 L 81.410154,93.709179 C 114.54773,90.582573 147.87439,91.042324 181.16728,91.19963 C 181.15554,63.265929 181.15617,35.358551 181.10709,7.468899 z "
     style="fill:#000000;fill-opacity:1;fill-rule:nonzero;stroke:none"
     id="path5523" />
</svg>
