<?xml version="1.0" encoding="UTF-8" standalone="no"?>
<!-- Created with Inkscape (http://www.inkscape.org/) -->
<svg
   xmlns:svg="http://www.w3.org/2000/svg"
   xmlns="http://www.w3.org/2000/svg"
   version="1.0"
   width="43"
   height="36"
   viewBox="0 0 380 315"
   id="svg2">
  <defs
     id="defs4" />
  <path
     d="M 273.00813,224.59076 C 273.00813,178.42255 239.38943,141.44892 193.29983,141.44892 C 146.97513,141.44892 113.35653,178.1627 113.35653,224.59076 C 113.35653,271.01883 146.97513,307.73256 193.29983,307.73256 C 239.38943,307.73256 273.00813,270.75898 273.00813,224.59076 z M 227.77323,180.51546 C 219.75523,165.80843 207.60223,156.52995 193.31423,156.52995 C 178.96533,156.52995 166.78833,165.72774 158.75543,180.39084 L 160.03523,271.70775 C 168.05413,285.06664 179.70773,293.3373 193.31423,293.3373 C 206.88313,293.3373 218.52643,284.96939 226.53123,271.53102 L 227.77323,180.51546 z "
     style="fill:#000000;fill-opacity:1;fill-rule:evenodd;stroke:none;stroke-width:1px;stroke-linecap:butt;stroke-linejoin:miter;stroke-opacity:1"
     id="path3051" />
  <path
     d="M 99.227633,210.78724 L 99.227633,235.62405 L 288.95323,235.62405 L 288.95323,210.78724 L 99.227633,210.78724 z "
     style="fill:#000000;fill-opacity:1;fill-rule:evenodd;stroke:none;stroke-width:2.24345827;stroke-linecap:butt;stroke-linejoin:miter;stroke-miterlimit:4;stroke-dasharray:none;stroke-opacity:1"
     id="path3053" />
</svg>
