<?xml version="1.0" encoding="UTF-8" standalone="no"?>
<!-- Created with Inkscape (http://www.inkscape.org/) -->
<svg
   xmlns:svg="http://www.w3.org/2000/svg"
   xmlns="http://www.w3.org/2000/svg"
   version="1.0"
   width="43"
   height="36"
   viewBox="0 0 380 315"
   id="svg2">
  <defs
     id="defs4" />
  <path
     d="M 252.63366,132.71393 C 278.26156,132.64969 302.96596,141.24996 303.01616,170.66282 L 254.75806,170.78943 C 242.46456,186.37922 230.50316,200.18308 219.47786,214.42296 L 290.22716,294.69014 L 311.07156,294.6185 L 310.98986,307.73256 L 81.882962,307.73256 L 81.882962,294.65934 L 112.93176,294.33249 C 141.33286,262.80066 153.55796,244.36358 173.88956,210.0529 C 175.78226,206.8591 180.14866,201.70872 178.21406,199.29679 C 172.15626,191.12736 161.31076,179.51598 154.86806,167.7196 C 148.71986,163.95776 143.21806,165.3675 137.79496,167.40654 C 140.11176,174.5208 138.81546,182.13268 131.39756,188.44001 C 88.457462,213.79575 69.210062,144.54806 113.09516,131.89873 C 155.22796,117.58555 174.31026,154.91804 194.87676,181.06304 C 209.33656,166.51683 216.51616,149.03724 235.14826,135.00168 C 240.83796,133.49546 246.71966,132.72861 252.63366,132.71393 z M 202.83546,234.65271 L 161.65416,294.74345 L 253.84866,294.71641 L 202.83546,234.65271 z "
     style="fill:#000000;fill-opacity:1;fill-rule:evenodd;stroke:none;stroke-width:1px;stroke-linecap:butt;stroke-linejoin:miter;stroke-opacity:1"
     id="path4904" />
</svg>
