<?xml version="1.0" encoding="UTF-8" standalone="no"?>
<!-- Created with Inkscape (http://www.inkscape.org/) -->
<svg
   xmlns:svg="http://www.w3.org/2000/svg"
   xmlns="http://www.w3.org/2000/svg"
   version="1.0"
   width="43"
   height="36"
   viewBox="0 0 380 315"
   id="svg2">
  <defs
     id="defs4" />
  <path
     d="M 16.588061,7.2674381 L 16.588061,28.265004 C 46.589081,49.509137 80.261071,68.000191 115.57657,85.258387 L 82.080461,27.26512 L 186.8183,27.26512 C 166.59775,40.454589 145.31072,69.350034 144.5732,82.258735 L 144.5732,218.24295 C 132.75288,248.33776 112.65201,248.07039 93.079181,249.73929 C 49.866601,250.89806 29.709441,276.16023 15.588181,307.73256 L 76.081161,307.73256 C 80.336261,288.06534 92.032701,267.93258 110.57715,267.23726 L 183.56868,267.23726 C 211.08358,260.07999 237.83518,251.55958 247.06131,211.7437 L 247.06131,49.762508 C 250.00186,41.613354 249.15116,32.880868 268.55881,27.26512 L 363.54778,27.26512 L 363.54778,7.2674381 L 16.588061,7.2674381 z M 217.06479,26.765178 C 222.76223,28.230308 225.76008,37.102578 220.56438,44.513118 C 212.29734,54.581749 213.47361,55.8657 206.06607,64.760767 C 203.2009,75.438327 205.12887,86.986886 204.31627,98.006907 C 204.28187,129.58294 203.73664,161.20607 205.06618,192.74591 C 206.88547,212.6204 197.54036,231.45512 182.56879,244.4899 C 167.011,247.89301 160.93461,249.6895 155.57193,241.74022 C 162.716,229.22227 180.08898,225.12075 183.81865,210.24388 C 184.03262,170.4434 183.76495,130.8084 183.81865,91.00772 C 189.12873,57.696187 199.80389,40.026538 217.06479,26.765178 z "
     style="fill:#000000;fill-opacity:1;fill-rule:evenodd;stroke:none;stroke-width:1px;stroke-linecap:butt;stroke-linejoin:miter;stroke-opacity:1"
     id="path3134" />
</svg>
