<?xml version="1.0" encoding="UTF-8" standalone="no"?>
<!-- Created with Inkscape (http://www.inkscape.org/) -->
<svg
   xmlns:svg="http://www.w3.org/2000/svg"
   xmlns="http://www.w3.org/2000/svg"
   version="1.0"
   width="43"
   height="36"
   viewBox="0 0 380 315"
   id="svg2">
  <defs
     id="defs4" />
  <path
     d="M 164.08247,122.46769 C 166.75347,188.15091 85.86617,161.25705 121.72187,113.30864 C 145.50057,81.510017 236.80337,83.330057 251.66607,163.11109 C 260.24517,209.16241 126.47867,203.08633 138.32267,250.69464 C 150.68707,300.39542 228.63107,311.13199 260.82507,253.55683 C 267.36807,239.41575 265.83377,224.03204 265.97707,208.90642 C 280.02767,213.0247 306.06687,207.52561 307.86977,254.98743 C 292.06347,282.43852 268.59607,296.04192 236.85257,303.68945 C 179.50017,317.50677 110.87677,295.69486 98.82417,241.5356 C 83.71017,173.61905 177.68897,187.84061 201.86357,160.2489 C 230.51367,127.54919 180.21747,104.99328 156.64077,111.59137 C 156.64077,111.59137 163.78097,115.05362 164.08247,122.46769 z "
     style="fill:#000000;fill-opacity:1;fill-rule:evenodd;stroke:none;stroke-width:1px;stroke-linecap:butt;stroke-linejoin:miter;stroke-opacity:1"
     id="path4817" />
</svg>
