<?xml version="1.0" encoding="UTF-8" standalone="no"?>
<!-- Created with Inkscape (http://www.inkscape.org/) -->
<svg
   xmlns:svg="http://www.w3.org/2000/svg"
   xmlns="http://www.w3.org/2000/svg"
   version="1.0"
   width="43"
   height="36"
   viewBox="0 0 380 315"
   id="svg2">
  <defs
     id="defs4" />
  <g
     transform="matrix(11.291438,0,0,11.291438,-6932.4242,-2098.7721)"
     id="g3511">
    <path
       d="M 625.80029,186.68071 L 636.83116,186.68071 L 636.83116,188.58989 L 633.82034,188.58989 L 633.82034,199.97432 L 636.83116,199.97432 L 636.83116,201.45924 L 633.82034,201.45924 L 633.82034,211.07589 L 636.83116,211.07589 L 636.83116,213.1265 L 625.80029,213.1265 L 625.80029,211.07589 L 628.62034,211.07589 L 628.62034,201.45924 L 625.80029,201.45924 L 625.80029,199.97432 L 628.62034,199.97432 L 628.62034,188.58989 L 625.80029,188.58989 L 625.80029,186.68071 z "
       style="fill:#000000;fill-opacity:1;fill-rule:evenodd;stroke:none;stroke-width:1px;stroke-linecap:butt;stroke-linejoin:miter;stroke-opacity:1"
       id="path3513" />
    <path
       d="M 633.50776,193.18609 C 636.19244,195.16828 639.37334,195.94534 641.21522,199.97432 C 643.24711,210.54724 611.79807,209.88913 618.09283,195.51954 C 618.64803,195.27152 619.05773,195.43577 619.41394,195.75156 C 623.67651,205.08656 630.04669,189.38249 618.72922,192.19614 C 612.92937,193.63804 611.39966,206.41045 628.4873,209.23742 L 633.57847,209.23742 C 656.09527,203.57576 645.59136,193.56241 633.71989,190.00411 L 633.50776,193.18609 z "
       style="fill:#000000;fill-opacity:1;fill-rule:evenodd;stroke:none;stroke-width:1px;stroke-linecap:butt;stroke-linejoin:miter;stroke-opacity:1"
       id="path3515" />
  </g>
</svg>
