<?xml version="1.0" encoding="UTF-8" standalone="no"?>
<!-- Created with Inkscape (http://www.inkscape.org/) -->
<svg
   xmlns:svg="http://www.w3.org/2000/svg"
   xmlns="http://www.w3.org/2000/svg"
   version="1.0"
   width="43"
   height="36"
   viewBox="0 0 380 315"
   id="svg2">
  <defs
     id="defs4" />
  <path
     d="M 159.24632,276.68731 C 150.51012,248.76035 173.16422,221.51062 177.32012,193.38342 C 182.93362,155.39126 157.59272,135.15489 142.42842,135.15489 C 127.26422,135.15489 101.92322,155.39126 107.53682,193.38342 C 111.69272,221.51062 126.06782,248.76035 118.95002,276.68731 L 159.24632,276.68731 z "
     style="fill:#000000;fill-opacity:1;fill-rule:evenodd;stroke:none;stroke-width:1px;stroke-linecap:butt;stroke-linejoin:miter;stroke-opacity:1"
     id="path3413" />
  <path
     d="M 281.22262,276.68731 C 272.48652,248.76035 295.14052,221.51062 299.29642,193.38342 C 304.91002,155.39126 279.56902,135.15489 264.40482,135.15489 C 249.24052,135.15489 223.89962,155.39126 229.51322,193.38342 C 233.66912,221.51062 248.04422,248.76035 240.92642,276.68731 L 281.22262,276.68731 z "
     style="fill:#000000;fill-opacity:1;fill-rule:evenodd;stroke:none;stroke-width:1px;stroke-linecap:butt;stroke-linejoin:miter;stroke-opacity:1"
     id="path3415" />
  <path
     d="M 262.09072,238.57064 L 253.46682,249.95418 C 235.37202,273.44495 217.69612,283.1058 201.03352,283.06993 C 184.37092,283.03405 165.90182,273.06875 146.18552,249.60922 L 137.56162,239.26055 L 130.31762,250.64409 C 118.53442,269.20657 103.94142,278.52303 87.198121,287.55435 C 83.468321,288.83284 80.847321,292.19597 80.518721,296.12526 C 80.190121,300.05445 82.216121,303.80613 85.681721,305.68644 C 89.147521,307.56675 93.397121,307.2197 96.511921,304.80214 C 111.21682,296.87037 126.57072,286.12585 139.63142,269.96161 C 159.09442,290.1397 179.51972,303.031 201.03352,303.07736 C 222.32582,303.12317 242.19962,290.32493 260.36592,270.30657 C 271.22622,284.25227 284.36102,296.31932 300.38082,306.18196 C 305.04832,309.1349 311.22612,307.74492 314.17902,303.07736 C 317.13192,298.40981 315.74192,292.23206 311.07442,289.27913 C 293.26982,278.3176 278.99462,265.64431 269.67972,250.64409 L 262.09072,238.57064 z "
     style="fill:#000000;fill-opacity:1;fill-rule:evenodd;stroke:none;stroke-width:1.79999995;stroke-linecap:round;stroke-linejoin:miter;stroke-miterlimit:4;stroke-dasharray:none;stroke-opacity:1"
     id="path3417" />
</svg>
