<?xml version="1.0" encoding="UTF-8" standalone="no"?>
<svg
   xmlns:dc="http://purl.org/dc/elements/1.1/"
   xmlns:cc="http://creativecommons.org/ns#"
   xmlns:rdf="http://www.w3.org/1999/02/22-rdf-syntax-ns#"
   xmlns:svg="http://www.w3.org/2000/svg"
   xmlns="http://www.w3.org/2000/svg"
   xmlns:sodipodi="http://sodipodi.sourceforge.net/DTD/sodipodi-0.dtd"
   xmlns:inkscape="http://www.inkscape.org/namespaces/inkscape"
   width="12pt"
   height="12pt"
   viewBox="0 0 12 12"
   version="1.1"
   id="svg20"
   sodipodi:docname="U+03E6.svg"
   inkscape:version="0.92.5 (2060ec1f9f, 2020-04-08)">
  <metadata
     id="metadata26">
    <rdf:RDF>
      <cc:Work
         rdf:about="">
        <dc:format>image/svg+xml</dc:format>
        <dc:type
           rdf:resource="http://purl.org/dc/dcmitype/StillImage" />
        <dc:title />
      </cc:Work>
    </rdf:RDF>
  </metadata>
  <defs
     id="defs24" />
  <sodipodi:namedview
     pagecolor="#ffffff"
     bordercolor="#666666"
     borderopacity="1"
     objecttolerance="10"
     gridtolerance="10"
     guidetolerance="10"
     inkscape:pageopacity="0"
     inkscape:pageshadow="2"
     inkscape:window-width="1920"
     inkscape:window-height="1009"
     id="namedview22"
     showgrid="false"
     inkscape:zoom="20.85965"
     inkscape:cx="0.92274309"
     inkscape:cy="10.499181"
     inkscape:window-x="0"
     inkscape:window-y="0"
     inkscape:window-maximized="1"
     inkscape:current-layer="svg20"
     inkscape:snap-object-midpoints="true"
     inkscape:snap-center="true"
     inkscape:snap-smooth-nodes="true"
     showguides="false" />
  <path
     inkscape:connector-curvature="0"
     id="path843"
     style="font-style:normal;font-variant:normal;font-weight:normal;font-stretch:normal;font-size:10px;line-height:0;font-family:Antinoou;-inkscape-font-specification:Antinoou;font-variant-ligatures:normal;font-variant-caps:normal;font-variant-numeric:normal;font-feature-settings:normal;text-align:start;writing-mode:lr-tb;text-anchor:start;fill:#000006;fill-opacity:1;stroke:none;stroke-width:0.15000001;stroke-linecap:square;stroke-linejoin:bevel;stroke-miterlimit:4;stroke-dasharray:none;stroke-dashoffset:0;stroke-opacity:1;paint-order:markers stroke fill"
     d="m 8.927241,8.0407421 c 0,0.4199219 -0.063477,0.8056641 -0.19043,1.1572266 -0.123698,0.3483073 -0.3238933,0.6803384 -0.600586,0.9960933 -0.5533853,0.61849 -1.1848957,0.927735 -1.894531,0.927735 -0.4720053,0 -1.0074873,-0.130208 -1.606446,-0.390625 -0.022787,0.0033 -0.0472,0.03256 -0.07324,0.08789 -0.022787,0.05859 -0.0472,0.12207 -0.07324,0.19043 -0.022787,0.07161 -0.045573,0.139974 -0.06836,0.205078 -0.019533,0.06836 -0.037437,0.113932 -0.05371,0.136719 -0.097657,0.139974 -0.249024,0.209961 -0.454102,0.209961 -0.032553,0 -0.079754,-0.0065 -0.141601,-0.01953 -0.061847,-0.01302 -0.126951,-0.0293 -0.195313,-0.04883 -0.065107,-0.01627 -0.1285833,-0.03092 -0.19043,-0.04395 -0.061847,-0.01302 -0.109047,-0.01953 -0.141601,-0.01953 -0.1139327,0 -0.170899,-0.110677 -0.170899,-0.332031 0,-0.286459 0.071615,-0.511068 0.214844,-0.673828 0.1464847,-0.159505 0.3417973,-0.239258 0.585938,-0.239258 0.507812,0.224609 0.9912103,0.336914 1.450195,0.336914 0.345052,0 0.6640623,-0.06348 0.957031,-0.19043 C 6.576984,10.203824 6.832518,10.026415 7.047362,9.7985506 7.2654607,9.570686 7.4347313,9.3005037 7.555174,8.9880037 7.678872,8.6755037 7.740721,8.3337068 7.740721,7.9626131 7.740721,7.5980298 7.700031,7.2529777 7.618651,6.9274568 7.5405257,6.601936 7.428221,6.3171053 7.281737,6.0729647 7.1385077,5.828824 6.9659817,5.6351391 6.764159,5.49191 6.5623357,5.3486808 6.3409813,5.2770662 6.100096,5.2770662 c -0.172526,0 -0.340169,0.039063 -0.502929,0.1171875 C 5.4376617,5.4691235 5.29606,5.5716626 5.172362,5.7018709 5.048664,5.828824 4.94938,5.9785636 4.87451,6.1510897 4.8028953,6.3236157 4.767088,6.5059074 4.767088,6.6979647 v 1.1669921 c 0,0.1302083 0.1025393,0.3076172 0.307618,0.5322266 0.2083333,0.2278646 0.3125,0.3613281 0.3125,0.4003906 0,0.071615 -0.030923,0.1464844 -0.09277,0.2246094 C 5.2358427,9.1003084 5.1626007,9.171923 5.07471,9.2370272 4.990074,9.3021312 4.9005557,9.3558421 4.806155,9.39816 4.7117537,9.440478 4.6287457,9.461637 4.557131,9.461637 4.4464543,9.461637 4.3390327,9.4437333 4.234866,9.407926 4.1306993,9.3721187 4.037926,9.3232905 3.956546,9.2614416 3.8751653,9.1963376 3.8084333,9.1214678 3.75635,9.0368322 3.7075233,8.9489416 3.68311,8.852913 3.68311,8.7487463 V 4.2956213 C 3.68311,4.1784338 3.580571,4.0026526 3.375493,3.7682776 3.1736697,3.5371578 3.072758,3.4020666 3.072758,3.3630041 c 0,-0.068359 0.029297,-0.1416015 0.08789,-0.2197265 0.061847,-0.078125 0.135089,-0.1497396 0.219727,-0.2148438 0.084635,-0.068359 0.1741533,-0.1236979 0.268554,-0.1660156 0.097657,-0.042318 0.1822923,-0.063477 0.253907,-0.063477 0.1106767,0 0.2180983,0.019531 0.322265,0.058594 0.1041667,0.035807 0.1969403,0.086263 0.278321,0.1513672 0.08138,0.061849 0.1448563,0.1367184 0.190429,0.2246093 0.048827,0.087891 0.07324,0.1806641 0.07324,0.2783203 V 5.3796055 C 5.2000337,5.0247878 5.7143567,4.8473789 6.31006,4.8473789 c 0.371094,0 0.7145187,0.079753 1.030274,0.2392578 0.3157547,0.1595052 0.5924473,0.3792318 0.830078,0.6591797 0.2408853,0.2799479 0.426432,0.6103516 0.55664,0.991211 0.133464,0.3776041 0.200196,0.7861328 0.200196,1.2255859 z"
     sodipodi:nodetypes="cccscccccscccssccscccscccscccsscscccssccsscscccscccscsscccc" />
</svg>
