<?xml version="1.0" encoding="UTF-8" standalone="no"?>
<svg
   xmlns:dc="http://purl.org/dc/elements/1.1/"
   xmlns:cc="http://creativecommons.org/ns#"
   xmlns:rdf="http://www.w3.org/1999/02/22-rdf-syntax-ns#"
   xmlns:svg="http://www.w3.org/2000/svg"
   xmlns="http://www.w3.org/2000/svg"
   xmlns:sodipodi="http://sodipodi.sourceforge.net/DTD/sodipodi-0.dtd"
   xmlns:inkscape="http://www.inkscape.org/namespaces/inkscape"
   width="12pt"
   height="12pt"
   viewBox="0 0 12 12"
   version="1.1"
   id="svg20"
   sodipodi:docname="U+03EB.svg"
   inkscape:version="0.92.5 (2060ec1f9f, 2020-04-08)">
  <metadata
     id="metadata26">
    <rdf:RDF>
      <cc:Work
         rdf:about="">
        <dc:format>image/svg+xml</dc:format>
        <dc:type
           rdf:resource="http://purl.org/dc/dcmitype/StillImage" />
        <dc:title />
      </cc:Work>
    </rdf:RDF>
  </metadata>
  <defs
     id="defs24" />
  <sodipodi:namedview
     pagecolor="#ffffff"
     bordercolor="#666666"
     borderopacity="1"
     objecttolerance="10"
     gridtolerance="10"
     guidetolerance="10"
     inkscape:pageopacity="0"
     inkscape:pageshadow="2"
     inkscape:window-width="1920"
     inkscape:window-height="1009"
     id="namedview22"
     showgrid="false"
     inkscape:zoom="20.85965"
     inkscape:cx="-2.9124123"
     inkscape:cy="10.499181"
     inkscape:window-x="0"
     inkscape:window-y="0"
     inkscape:window-maximized="1"
     inkscape:current-layer="svg20"
     inkscape:snap-object-midpoints="true"
     inkscape:snap-center="true"
     inkscape:snap-smooth-nodes="true"
     showguides="false" />
  <path
     inkscape:connector-curvature="0"
     id="path853"
     style="font-style:normal;font-variant:normal;font-weight:normal;font-stretch:normal;font-size:10px;line-height:0;font-family:Antinoou;-inkscape-font-specification:Antinoou;font-variant-ligatures:normal;font-variant-caps:normal;font-variant-numeric:normal;font-feature-settings:normal;text-align:start;writing-mode:lr-tb;text-anchor:start;fill:#000006;fill-opacity:1;stroke:none;stroke-width:0.15000001;stroke-linecap:square;stroke-linejoin:bevel;stroke-miterlimit:4;stroke-dasharray:none;stroke-dashoffset:0;stroke-opacity:1;paint-order:markers stroke fill"
     d="m 9.288571,9.6667187 c 0,0.1529947 -0.045573,0.2294921 -0.136718,0.2294921 -0.058593,0 -0.146484,0.014648 -0.263672,0.043945 -0.1171873,0.032552 -0.205078,0.048828 -0.263672,0.048828 -0.1660153,0 -0.2880857,-0.050456 -0.366211,-0.1513672 C 8.219238,9.7855333 8.1834307,9.6943874 8.150876,9.5641791 8.1280893,9.4665228 8.0939097,9.4176947 8.048337,9.4176947 H 3.336423 c -0.4166667,0 -0.625,-0.2115885 -0.625,-0.6347656 0,-0.1497396 0.045573,-0.2246094 0.136719,-0.2246094 0.058593,0 0.146484,-0.014648 0.263672,-0.043945 0.1171873,-0.032552 0.205078,-0.048828 0.263672,-0.048828 0.16276,0 0.2832027,0.050456 0.361328,0.1513672 0.03906,0.048828 0.074867,0.1399738 0.107422,0.2734375 0.02604,0.1009115 0.06022,0.1497396 0.102539,0.1464843 L 5.611814,6.6442576 C 5.1853813,6.0160024 4.9591443,5.7018748 4.933103,5.7018748 c -0.035807,0 -0.099283,0.017904 -0.19043,0.053711 -0.087891,0.032552 -0.1546223,0.048828 -0.200195,0.048828 -0.1464847,0 -0.2701827,-0.084635 -0.371094,-0.2539063 L 3.966306,5.1110544 c -0.01302,-0.029297 -0.01953,-0.050456 -0.01953,-0.063477 0,-0.08138 0.068359,-0.15625 0.205078,-0.2246093 0.1171873,-0.061849 0.221354,-0.092773 0.3125,-0.092773 0.123698,0 0.266927,0.026042 0.429687,0.078125 0.188802,0.058594 0.3108723,0.128581 0.366211,0.209961 L 6.00244,6.0827342 6.744627,5.0182811 c 0.1334633,-0.1920573 0.2962237,-0.288086 0.488281,-0.288086 0.091146,0 0.1953127,0.030924 0.3125,0.092773 0.1367193,0.068359 0.205079,0.1432291 0.205079,0.2246093 0,0.016276 -0.00814,0.037435 -0.02441,0.063477 -0.065107,0.1464844 -0.133466,0.2929688 -0.205078,0.4394531 -0.084635,0.1692709 -0.2067057,0.2539063 -0.366211,0.2539063 -0.045573,0 -0.1139327,-0.016276 -0.205078,-0.048828 -0.087891,-0.035807 -0.1497397,-0.053711 -0.185547,-0.053711 -0.022787,0 -0.201823,0.2360026 -0.537109,0.7080078 l 1.376953,1.9873047 c 0.1920573,0.2766927 0.3304037,0.444336 0.415039,0.5029297 0.1302087,0.091146 0.343425,0.1367187 0.639649,0.1367187 0.4199213,0 0.629882,0.209961 0.629882,0.6298829 z M 7.223142,9.0368358 5.836423,6.9665233 C 5.5434543,7.38319 5.0665663,8.0732941 4.405759,9.0368358 Z"
     sodipodi:nodetypes="cscsccsssscsccccscsccscsccccscsccscscccscccccc" />
</svg>
