<?xml version="1.0" encoding="UTF-8" standalone="no"?>
<svg
   xmlns:dc="http://purl.org/dc/elements/1.1/"
   xmlns:cc="http://creativecommons.org/ns#"
   xmlns:rdf="http://www.w3.org/1999/02/22-rdf-syntax-ns#"
   xmlns:svg="http://www.w3.org/2000/svg"
   xmlns="http://www.w3.org/2000/svg"
   xmlns:sodipodi="http://sodipodi.sourceforge.net/DTD/sodipodi-0.dtd"
   xmlns:inkscape="http://www.inkscape.org/namespaces/inkscape"
   width="12pt"
   height="12pt"
   viewBox="0 0 12 12"
   version="1.1"
   id="svg20"
   sodipodi:docname="U+03E3.svg"
   inkscape:version="0.92.5 (2060ec1f9f, 2020-04-08)">
  <metadata
     id="metadata26">
    <rdf:RDF>
      <cc:Work
         rdf:about="">
        <dc:format>image/svg+xml</dc:format>
        <dc:type
           rdf:resource="http://purl.org/dc/dcmitype/StillImage" />
        <dc:title />
      </cc:Work>
    </rdf:RDF>
  </metadata>
  <defs
     id="defs24" />
  <sodipodi:namedview
     pagecolor="#ffffff"
     bordercolor="#666666"
     borderopacity="1"
     objecttolerance="10"
     gridtolerance="10"
     guidetolerance="10"
     inkscape:pageopacity="0"
     inkscape:pageshadow="2"
     inkscape:window-width="1920"
     inkscape:window-height="1009"
     id="namedview22"
     showgrid="false"
     inkscape:zoom="20.85965"
     inkscape:cx="-4.8299901"
     inkscape:cy="12.416759"
     inkscape:window-x="0"
     inkscape:window-y="0"
     inkscape:window-maximized="1"
     inkscape:current-layer="svg20"
     inkscape:snap-object-midpoints="true"
     inkscape:snap-center="true"
     inkscape:snap-smooth-nodes="true"
     showguides="false" />
  <path
     inkscape:connector-curvature="0"
     id="path837"
     style="font-style:normal;font-variant:normal;font-weight:normal;font-stretch:normal;font-size:10px;line-height:0;font-family:Antinoou;-inkscape-font-specification:Antinoou;font-variant-ligatures:normal;font-variant-caps:normal;font-variant-numeric:normal;font-feature-settings:normal;text-align:start;writing-mode:lr-tb;text-anchor:start;fill:#000006;fill-opacity:1;stroke:none;stroke-width:0.15000001;stroke-linecap:square;stroke-linejoin:bevel;stroke-miterlimit:4;stroke-dasharray:none;stroke-dashoffset:0;stroke-opacity:1;paint-order:markers stroke fill"
     d="m 9.6059575,7.4938671 c 0,1.0970052 -0.4361977,2.0589192 -1.308593,2.8857419 -0.247396,0.234375 -0.610352,0.481771 -1.088868,0.742188 -0.5305987,0.289713 -0.9326167,0.43457 -1.206054,0.43457 -0.094401,0 -0.1513677,-0.04883 -0.170899,-0.146484 l 0.01953,-0.03906 c 0.022787,-0.02279 0.214844,-0.144857 0.576172,-0.366211 0.7096353,-0.436198 1.2727863,-0.986328 1.689453,-1.6503903 -0.2408853,0.091146 -0.496419,0.1367187 -0.766601,0.1367187 -0.4231773,0 -0.724284,-0.016276 -0.90332,-0.048828 -0.2864587,-0.052083 -0.564779,-0.164388 -0.834961,-0.3369141 -0.3483073,0.2571615 -0.6966147,0.3857422 -1.044922,0.3857422 -0.6217447,0 -1.1442057,-0.234375 -1.567383,-0.703125 -0.403646,-0.4524739 -0.605469,-0.9944661 -0.605469,-1.6259766 0,-0.6933593 0.2067057,-1.266276 0.620117,-1.71875 0.4264327,-0.46875 0.9830733,-0.703125 1.669922,-0.703125 0.1041667,0 0.15625,0.042318 0.15625,0.1269532 0,0.1334635 -0.118815,0.2001953 -0.356445,0.2001953 -0.410156,0 -0.7161457,0.1904297 -0.917969,0.571289 -0.16276,0.3059896 -0.24414,0.6803386 -0.24414,1.1230469 0,0.5631511 0.097656,1.0725912 0.292968,1.5283203 0.2539067,0.5924479 0.626628,0.8886719 1.118164,0.8886719 0.5631513,0 0.844727,-0.5973307 0.844727,-1.7919922 v -1.508789 c 0,-0.087891 -0.08138,-0.2083334 -0.244141,-0.3613282 C 5.1739908,5.3633363 5.0942385,5.2689353 5.0942385,5.233128 c 0,-0.1009115 0.086263,-0.2034505 0.258789,-0.3076172 0.15625,-0.097656 0.2897133,-0.1464844 0.40039,-0.1464844 0.1595053,0 0.3076173,0.04069 0.444336,0.1220704 0.1595053,0.094401 0.239258,0.2164713 0.239258,0.3662109 v 3.1298828 c 0,0.2441406 0.123698,0.4410807 0.371094,0.5908203 0.2115887,0.1269531 0.4475913,0.1904297 0.708008,0.1904297 0.7617187,0 1.142578,-0.5973307 1.142578,-1.7919922 0,-0.5598958 -0.096029,-1.0530599 -0.288086,-1.4794922 -0.2506513,-0.5598958 -0.61849,-0.8398437 -1.103516,-0.8398437 -0.1529947,0 -0.229492,-0.066732 -0.229492,-0.2001953 0,-0.091146 0.053711,-0.1350912 0.161133,-0.131836 l 0.268554,0.00488 c 0.6705733,0.013021 1.2060553,0.3157551 1.606446,0.9082032 0.3548173,0.5240885 0.532226,1.1393229 0.532226,1.8457031 z"
     sodipodi:nodetypes="cccsccccsscscscssscscssscscscsscsscssccccc" />
</svg>
