<?xml version="1.0" encoding="UTF-8" standalone="no"?>
<svg
   xmlns:dc="http://purl.org/dc/elements/1.1/"
   xmlns:cc="http://creativecommons.org/ns#"
   xmlns:rdf="http://www.w3.org/1999/02/22-rdf-syntax-ns#"
   xmlns:svg="http://www.w3.org/2000/svg"
   xmlns="http://www.w3.org/2000/svg"
   xmlns:sodipodi="http://sodipodi.sourceforge.net/DTD/sodipodi-0.dtd"
   xmlns:inkscape="http://www.inkscape.org/namespaces/inkscape"
   width="12pt"
   height="12pt"
   viewBox="0 0 12 12"
   version="1.1"
   id="svg20"
   sodipodi:docname="U+03EF.svg"
   inkscape:version="0.92.5 (2060ec1f9f, 2020-04-08)">
  <metadata
     id="metadata26">
    <rdf:RDF>
      <cc:Work
         rdf:about="">
        <dc:format>image/svg+xml</dc:format>
        <dc:type
           rdf:resource="http://purl.org/dc/dcmitype/StillImage" />
        <dc:title></dc:title>
      </cc:Work>
    </rdf:RDF>
  </metadata>
  <defs
     id="defs24" />
  <sodipodi:namedview
     pagecolor="#ffffff"
     bordercolor="#666666"
     borderopacity="1"
     objecttolerance="10"
     gridtolerance="10"
     guidetolerance="10"
     inkscape:pageopacity="0"
     inkscape:pageshadow="2"
     inkscape:window-width="1920"
     inkscape:window-height="1009"
     id="namedview22"
     showgrid="false"
     inkscape:zoom="20.85965"
     inkscape:cx="-7.7782658"
     inkscape:cy="10.499181"
     inkscape:window-x="0"
     inkscape:window-y="0"
     inkscape:window-maximized="1"
     inkscape:current-layer="svg20"
     inkscape:snap-object-midpoints="true"
     inkscape:snap-center="true"
     inkscape:snap-smooth-nodes="true"
     showguides="false" />
  <path
     inkscape:connector-curvature="0"
     id="path861"
     style="font-style:normal;font-variant:normal;font-weight:normal;font-stretch:normal;font-size:10px;line-height:0;font-family:Antinoou;-inkscape-font-specification:Antinoou;font-variant-ligatures:normal;font-variant-caps:normal;font-variant-numeric:normal;font-feature-settings:normal;text-align:start;writing-mode:lr-tb;text-anchor:start;fill:#000006;fill-opacity:1;stroke:none;stroke-width:0.15000001;stroke-linecap:square;stroke-linejoin:bevel;stroke-miterlimit:4;stroke-dasharray:none;stroke-dashoffset:0;stroke-opacity:1;paint-order:markers stroke fill"
     d="m 8.7661133,6.3317577 c 0,0.1497396 -0.045573,0.2246094 -0.1367187,0.2246094 -0.058594,0 -0.1464846,0.016276 -0.2636719,0.048828 -0.1171875,0.029297 -0.2050782,0.043945 -0.2636719,0.043945 -0.1660156,0 -0.2864583,-0.048828 -0.3613281,-0.1464843 C 7.7049154,6.4570831 7.6691081,6.3643098 7.6333008,6.2243358 7.6072591,6.1266796 7.5730794,6.0778515 7.5307617,6.0778515 H 6.4272461 v 3.8085937 c 0,0.08138 0.08138,0.2018228 0.2441406,0.3613278 0.1660157,0.162761 0.2490235,0.255534 0.2490235,0.278321 0,0.104167 -0.083008,0.206706 -0.2490235,0.307617 -0.1627604,0.100911 -0.2994791,0.151367 -0.4101562,0.151367 -0.1627604,0 -0.3125,-0.04069 -0.4492188,-0.12207 -0.1627604,-0.0944 -0.2617143,-0.217506 -0.2441406,-0.366211 V 6.0778515 h -1.09375 c -0.045573,0 -0.079752,0.048828 -0.102539,0.1464843 -0.032552,0.1334636 -0.068359,0.2262371 -0.1074219,0.2783204 -0.07487,0.097656 -0.1969401,0.1464843 -0.366211,0.1464843 -0.058594,0 -0.1464846,-0.014648 -0.2636718,-0.043945 -0.1171875,-0.032552 -0.2050782,-0.048828 -0.2636719,-0.048828 -0.091146,0 -0.1367188,-0.07487 -0.1367188,-0.2246094 0,-0.4199219 0.209961,-0.6298828 0.6298829,-0.6298828 H 5.5678711 V 4.320039 c 0,-0.08138 -0.08138,-0.2018229 -0.2441406,-0.3613282 C 5.1642253,3.7959504 5.0844727,3.7015494 5.0844727,3.6755077 c 0,-0.1009115 0.084635,-0.2050781 0.2539062,-0.3125 0.15625,-0.094401 0.2897136,-0.1416015 0.4003907,-0.1416015 0.1627604,0 0.3125,0.04069 0.4492187,0.1220703 0.1595052,0.091146 0.2004631,0.2182164 0.2392578,0.3662109 v 1.9921875 h 1.7138672 c 0.4166667,0 0.625,0.2099609 0.625,0.6298828 z"
     sodipodi:nodetypes="sscsccscscscscscsccscssscscscscscss" />
</svg>
