<?xml version="1.0" encoding="UTF-8" standalone="no"?>
<svg
   xmlns:dc="http://purl.org/dc/elements/1.1/"
   xmlns:cc="http://creativecommons.org/ns#"
   xmlns:rdf="http://www.w3.org/1999/02/22-rdf-syntax-ns#"
   xmlns:svg="http://www.w3.org/2000/svg"
   xmlns="http://www.w3.org/2000/svg"
   xmlns:sodipodi="http://sodipodi.sourceforge.net/DTD/sodipodi-0.dtd"
   xmlns:inkscape="http://www.inkscape.org/namespaces/inkscape"
   width="12pt"
   height="12pt"
   viewBox="0 0 12 12"
   version="1.1"
   id="svg20"
   sodipodi:docname="U+03E8.svg"
   inkscape:version="0.92.5 (2060ec1f9f, 2020-04-08)">
  <metadata
     id="metadata26">
    <rdf:RDF>
      <cc:Work
         rdf:about="">
        <dc:format>image/svg+xml</dc:format>
        <dc:type
           rdf:resource="http://purl.org/dc/dcmitype/StillImage" />
        <dc:title />
      </cc:Work>
    </rdf:RDF>
  </metadata>
  <defs
     id="defs24" />
  <sodipodi:namedview
     pagecolor="#ffffff"
     bordercolor="#666666"
     borderopacity="1"
     objecttolerance="10"
     gridtolerance="10"
     guidetolerance="10"
     inkscape:pageopacity="0"
     inkscape:pageshadow="2"
     inkscape:window-width="1920"
     inkscape:window-height="1009"
     id="namedview22"
     showgrid="false"
     inkscape:zoom="20.85965"
     inkscape:cx="8.5930539"
     inkscape:cy="10.499181"
     inkscape:window-x="0"
     inkscape:window-y="0"
     inkscape:window-maximized="1"
     inkscape:current-layer="svg20"
     inkscape:snap-object-midpoints="true"
     inkscape:snap-center="true"
     inkscape:snap-smooth-nodes="true"
     showguides="false" />
  <path
     inkscape:connector-curvature="0"
     id="path847"
     style="font-style:normal;font-variant:normal;font-weight:normal;font-stretch:normal;font-size:10px;line-height:0;font-family:Antinoou;-inkscape-font-specification:Antinoou;font-variant-ligatures:normal;font-variant-caps:normal;font-variant-numeric:normal;font-feature-settings:normal;text-align:start;writing-mode:lr-tb;text-anchor:start;fill:#000006;fill-opacity:1;stroke:none;stroke-width:0.15000001;stroke-linecap:square;stroke-linejoin:bevel;stroke-miterlimit:4;stroke-dasharray:none;stroke-dashoffset:0;stroke-opacity:1;paint-order:markers stroke fill"
     d="m 8.4365235,10.238008 c -0.592448,0.882161 -1.3671877,1.323242 -2.324219,1.323242 -0.3841147,0 -0.69987,-0.04557 -0.947266,-0.136719 -0.2832027,-0.104167 -0.55664,-0.292969 -0.820312,-0.566406 -0.5208333,-0.537109 -0.78125,-1.1832682 -0.78125,-1.9384767 0,-0.7486979 0.283203,-1.3590494 0.849609,-1.8310546 0.1269533,-0.1074219 0.651042,-0.4150391 1.572266,-0.9228516 0.566406,-0.3125 0.849609,-0.6510417 0.849609,-1.015625 0,-0.390625 -0.1171873,-0.8219401 -0.351562,-1.2939453 C 6.2164712,3.3223176 5.9300128,3.0553905 5.6240235,3.0553905 c -0.221354,0 -0.4085287,0.097656 -0.561524,0.2929688 -0.1497393,0.1920573 -0.224609,0.415039 -0.224609,0.6689453 0,0.2604167 0.091146,0.5078125 0.273438,0.7421875 0.032553,0.039063 0.214845,0.2262371 0.546875,0.5615234 -0.032553,0.1822917 -0.109051,0.2734375 -0.229493,0.2734375 -0.442708,0 -0.8138017,-0.089518 -1.113281,-0.2685547 -0.3841147,-0.2278645 -0.576172,-0.5745442 -0.576172,-1.040039 0,-0.5436198 0.2376303,-0.9667969 0.712891,-1.2695313 0.3906247,-0.2473958 0.8430987,-0.3710937 1.357422,-0.3710937 0.641276,0 1.166992,0.2083333 1.577148,0.625 0.4231773,0.4329427 0.634766,1.0139973 0.634766,1.743164 0,0.4980469 -0.2783203,0.8886719 -0.834961,1.171875 -0.8951827,0.4557292 -1.4143883,0.748698 -1.557617,0.8789063 -0.5566407,0.5143229 -0.834961,1.2988281 -0.834961,2.3535156 0,0.4720052 0.143229,0.8740238 0.429687,1.2060548 0.289714,0.332031 0.639649,0.498047 1.049805,0.498047 0.6640627,0 1.2483727,-0.304362 1.75293,-0.913086 z"
     sodipodi:nodetypes="csccsccscscsccscscscsccscscc" />
</svg>
